<svg width="263" height="180" viewBox="0 0 263 180" fill="none" xmlns="http://www.w3.org/2000/svg">
<path d="M126.509 11.736C125.529 12.616 124.349 13.1027 122.969 13.196L92.079 20.706C82.5523 24.606 78.0823 22.8393 78.669 15.406C78.829 13.3993 79.5723 11.5627 80.899 9.896C84.5657 5.276 89.359 2.166 95.279 0.566002C106.339 -1.204 117.759 4.686 126.509 11.736Z" fill="#01153D"/>
<path d="M163.71 7C164.53 7.25333 164.657 7.43667 164.09 7.55C163.93 7.57667 163.93 7.61999 164.09 7.67999C165.217 8.13999 164.76 8.99667 162.72 10.25C162.6 10.3233 162.47 10.37 162.33 10.39C149.53 12.0633 136.92 15.5033 124.5 20.71C124.7 19.2 125.17 13.35 123 13.21C124.38 13.1167 125.56 12.63 126.54 11.75C127.2 12.2367 127.853 12.4033 128.5 12.25C140.087 9.49667 151.823 7.74667 163.71 7Z" fill="#233A63"/>
<path d="M122.969 13.196L92.079 20.706" stroke="#1E325B" stroke-width="2"/>
<path d="M124.469 20.696C124.669 19.186 125.139 13.336 122.969 13.196" stroke="#2F456E" stroke-width="2"/>
<path d="M92.079 20.706C93.339 24.0927 93.6557 27.706 93.029 31.546C91.959 38.216 92.699 45.996 92.599 51.806C92.479 58.986 93.0123 66.1293 94.199 73.236C94.409 74.486 95.829 77.346 94.819 78.916C94.7465 79.0295 94.6975 79.1562 94.6752 79.2885C94.6529 79.4208 94.6576 79.556 94.689 79.686L95.509 83.046" stroke="#475B83" stroke-width="2"/>
<path d="M95.509 83.046L85.269 80.916" stroke="#AA7A6E" stroke-width="2"/>
<path d="M85.269 80.916L76.179 78.236" stroke="#AA8681" stroke-width="2"/>
<path d="M105.209 34.766C100.756 47.686 102.842 59.356 111.469 69.776" stroke="#233862" stroke-width="2"/>
<path d="M111.469 69.776C114.749 73.9893 118.496 77.7393 122.709 81.026C122.884 81.1685 123.007 81.3692 123.059 81.596C123.446 83.2493 123.082 84.6993 121.969 85.946" stroke="#2F456E" stroke-width="2"/>
<path d="M121.969 85.946L105.859 84.696" stroke="#9C6557" stroke-width="2"/>
<path d="M105.859 84.696L95.509 83.046" stroke="#9D6E63" stroke-width="2"/>
<path d="M204.969 71.736L194.039 75.606C193.906 75.6538 193.784 75.7291 193.682 75.8269C193.58 75.9247 193.5 76.0427 193.447 76.1731C193.394 76.3035 193.37 76.4434 193.375 76.5835C193.381 76.7237 193.416 76.8608 193.479 76.986C196.866 83.9126 198.099 91.246 197.179 98.986" stroke="#713E34" stroke-width="2"/>
<path d="M197.179 98.986L193.219 100.446" stroke="#1E325B" stroke-width="2"/>
<path d="M193.219 100.446C191.679 93.426 193.549 80.9759 186.209 77.3459C182.849 75.6759 178.679 77.706 175.579 79.366C175.456 79.4313 175.349 79.5217 175.263 79.6315C175.178 79.7412 175.116 79.8679 175.082 80.0034C175.048 80.1389 175.043 80.2802 175.067 80.4184C175.09 80.5566 175.142 80.6886 175.219 80.806C180.309 88.466 179.499 96.2059 179.719 104.946" stroke="#071B44" stroke-width="2"/>
<path d="M179.719 104.946L174.509 106.486" stroke="#1E325B" stroke-width="2"/>
<path d="M174.509 106.486C174.416 102.653 174.409 98.8193 174.489 94.986C174.519 93.796 172.339 81.096 168.969 82.446" stroke="#713E34" stroke-width="2"/>
<path d="M168.969 82.446C166.729 76.836 173.529 74.856 177.329 73.136C180.776 71.576 183.832 71.236 186.499 72.116C188.399 72.736 189.366 72.0493 189.399 70.056C189.499 64.096 189.819 58.626 189.249 52.446C188.439 43.726 188.429 36.696 184.879 27.956C184.807 27.7794 184.689 27.6272 184.539 27.516C174.019 19.956 155.009 29.956 144.999 35.436" stroke="#071B44" stroke-width="2"/>
<path d="M144.999 35.436L135.859 40.716" stroke="#122850" stroke-width="2"/>
<path d="M135.859 40.716C132.192 39.7627 128.546 39.5193 124.919 39.986C118.949 40.756 114.709 39.376 109.389 38.546C106.999 38.176 106.169 36.776 105.209 34.766" stroke="#071B44" stroke-width="2"/>
<path d="M105.209 34.766C110.582 28.4326 117.002 23.7427 124.469 20.696" stroke="#1E325B" stroke-width="2"/>
<path d="M105.859 84.696C105.259 90.276 104.692 99.3726 104.159 111.986C104.106 113.159 104.459 113.896 105.219 114.196" stroke="#FF8442" stroke-width="2"/>
<path d="M85.269 80.916C84.669 85.5493 84.639 90.1326 85.179 94.666C85.2324 95.0726 85.329 95.096 85.469 94.736L85.549 94.536C85.7757 93.9693 85.8724 94.146 85.839 95.066L85.219 111.446" stroke="#FF9961" stroke-width="2"/>
<path d="M76.179 78.236L74.719 77.946" stroke="#BA958E" stroke-width="2"/>
<path d="M74.719 77.946C68.459 75.906 62.4723 73.2526 56.759 69.986" stroke="#BA9F9D" stroke-width="2"/>
<path d="M147.179 85.286L141.899 85.746" stroke="#825047" stroke-width="2"/>
<path d="M141.899 85.746C135.112 86.1726 128.469 86.2393 121.969 85.946" stroke="#915B4D" stroke-width="2"/>
<path d="M135.859 40.7159C126.529 46.6759 116.769 56.5659 119.079 68.0959C119.419 69.7859 118.639 71.6759 116.679 69.9059C116.486 69.7383 116.236 69.6491 115.979 69.6559L111.469 69.7759" stroke="#182E57" stroke-width="2"/>
<path d="M168.969 82.446C162.002 83.8193 154.739 84.766 147.179 85.286" stroke="#76443B" stroke-width="2"/>
<path d="M147.179 85.286C147.672 81.4326 147.736 78.2727 147.369 75.806C146.439 69.546 146.819 64.936 146.749 59.066C146.662 51.186 146.079 43.3093 144.999 35.436" stroke="#182E57" stroke-width="2"/>
<path d="M17.679 118.736C31.239 125.436 45.5024 130.006 60.469 132.446" stroke="#2B3E66" stroke-width="2"/>
<path d="M60.469 132.446C75.1157 134.866 89.8657 136.033 104.719 135.946" stroke="#1E325B" stroke-width="2"/>
<path d="M104.719 135.946C113.986 135.926 123.236 135.509 132.469 134.696" stroke="#122850" stroke-width="2"/>
<path d="M132.469 134.696C152.442 133.256 172.332 130.226 192.139 125.606C192.31 125.564 192.467 125.478 192.595 125.357C192.723 125.236 192.817 125.084 192.869 124.916C194.136 120.729 193.742 116.586 191.689 112.486C191.009 111.126 190.559 109.913 190.339 108.846C190.31 108.71 190.252 108.581 190.17 108.469C190.087 108.356 189.982 108.262 189.861 108.192C189.739 108.123 189.604 108.079 189.464 108.064C189.325 108.049 189.183 108.064 189.049 108.106C170.362 114.066 151.252 117.873 131.719 119.526" stroke="#071B44" stroke-width="2"/>
<path d="M131.719 119.526C122.299 119.933 112.882 119.849 103.469 119.276" stroke="#122850" stroke-width="2"/>
<path d="M103.469 119.276C87.949 117.963 73.0324 114.269 58.719 108.196" stroke="#1E325B" stroke-width="2"/>
<path d="M58.719 108.196C54.1724 105.889 49.6624 103.153 45.189 99.986C45.0285 99.8726 44.905 99.7144 44.8338 99.5312C44.7627 99.348 44.7471 99.1479 44.789 98.956C45.349 96.356 46.479 95.366 48.179 95.986" stroke="#2B3E66" stroke-width="2"/>
<path d="M71.969 107.946C76.2957 109.466 80.7124 110.633 85.219 111.446" stroke="#805D59" stroke-width="2"/>
<path d="M85.219 111.446C91.799 112.993 98.4657 113.909 105.219 114.196" stroke="#805146" stroke-width="2"/>
<path d="M105.219 114.196C118.452 115.329 131.632 114.926 144.759 112.986" stroke="#80483A" stroke-width="2"/>
<path d="M144.759 112.986C154.832 111.806 164.736 109.793 174.469 106.946" stroke="#713E34" stroke-width="2"/>
<path d="M174.469 106.946C182.342 105.226 190.009 102.836 197.469 99.776" stroke="#1E325B" stroke-width="2"/>
<path d="M193.219 100.446L179.719 104.946" stroke="#233862" stroke-width="2"/>
<path d="M204.969 71.736L210.469 93.396C210.525 93.6168 210.504 93.8502 210.41 94.0575C210.315 94.2648 210.153 94.4336 209.949 94.536C205.922 96.5893 201.762 98.336 197.469 99.776" stroke="#713E34" stroke-width="2"/>
<path d="M197.469 99.776L197.179 98.986" stroke="#8D5B51" stroke-width="2"/>
<path d="M174.509 106.486L174.469 106.946" stroke="#8D5B51" stroke-width="2"/>
<path d="M144.759 112.986C144.899 103.766 143.946 94.686 141.899 85.746" stroke="#EF7130" stroke-width="2"/>
<path d="M74.719 77.946C74.1057 77.8794 73.539 77.946 73.019 78.146C72.874 78.2012 72.7439 78.2917 72.6395 78.41C72.5352 78.5283 72.4596 78.6709 72.419 78.826C71.9523 80.5993 71.779 82.406 71.899 84.246C72.419 92.1393 72.4423 100.039 71.969 107.946" stroke="#FFAF83" stroke-width="2"/>
<path d="M71.969 107.946C63.309 105.393 55.379 101.406 48.179 95.986" stroke="#806768" stroke-width="2"/>
<path d="M48.179 95.986L53.679 78.736" stroke="#A99090" stroke-width="2"/>
<path d="M103.469 119.276C103.682 119.649 103.982 119.883 104.369 119.976C104.55 120.021 104.714 120.114 104.844 120.245C104.975 120.375 105.066 120.538 105.109 120.716C105.989 124.509 106.296 128.349 106.029 132.236C105.976 132.963 106.029 133.686 106.189 134.406C106.246 134.652 106.207 134.911 106.081 135.13C105.955 135.349 105.75 135.512 105.509 135.586C105.216 135.673 104.952 135.793 104.719 135.946" stroke="#2F456E" stroke-width="2"/>
<path d="M58.719 108.196C58.5324 108.129 58.3324 108.099 58.119 108.106C58.0211 108.107 57.9247 108.131 57.8373 108.175C57.7498 108.219 57.6737 108.283 57.6148 108.361C57.5558 108.439 57.5157 108.53 57.4973 108.626C57.479 108.722 57.483 108.822 57.509 108.916C58.479 112.356 60.129 115.176 60.509 118.596C61.029 123.223 61.0157 127.839 60.469 132.446" stroke="#475B83" stroke-width="2"/>
<path d="M132.469 134.696C132.589 134.363 132.789 134.136 133.069 134.016C133.23 133.948 133.364 133.828 133.45 133.677C133.537 133.525 133.572 133.349 133.549 133.176L131.719 119.526" stroke="#182E57" stroke-width="2"/>
<path d="M95.279 0.565979C89.359 2.16598 84.5656 5.27598 80.899 9.89598C79.5723 11.5626 78.829 13.3993 78.669 15.406C78.0823 22.8393 82.5523 24.606 92.079 20.706C93.339 24.0926 93.6557 27.706 93.029 31.546C91.959 38.216 92.699 45.996 92.599 51.806C92.479 58.986 93.0123 66.1293 94.199 73.236C94.409 74.486 95.829 77.346 94.819 78.916C94.7464 79.0294 94.6975 79.1562 94.6752 79.2885C94.6528 79.4208 94.6575 79.556 94.689 79.686L95.509 83.046L85.269 80.916L76.179 78.236C76.2523 78.116 76.3156 77.996 76.369 77.876C76.4284 77.7428 76.4577 77.5981 76.4547 77.4521C76.4518 77.3061 76.4167 77.1623 76.3519 77.0308C76.2871 76.8994 76.1942 76.7833 76.0797 76.6909C75.9652 76.5986 75.8318 76.532 75.689 76.496L71.319 75.426C71.064 75.3615 70.8441 75.201 70.7059 74.9788C70.5677 74.7566 70.5222 74.4901 70.579 74.236L70.849 73.046C70.8884 72.8564 70.8745 72.6592 70.809 72.476C69.519 69.056 70.299 65.126 70.139 62.496C69.749 55.946 70.849 49.386 70.389 42.936C70.3823 42.7626 70.329 42.6026 70.229 42.456L69.109 40.756C68.9893 40.5723 68.9332 40.3544 68.9495 40.1358C68.9658 39.9171 69.0534 39.7099 69.199 39.546C70.5257 38.0526 70.839 36.256 70.139 34.156C70.0866 33.9789 70.0798 33.7931 70.119 33.616C70.7323 30.936 70.529 30.3093 69.509 31.736C74.519 15.636 77.759 3.00598 95.279 0.565979Z" fill="#54678E"/>
<path d="M204.969 71.736L194.039 75.606C193.906 75.6539 193.784 75.7292 193.682 75.8269C193.58 75.9247 193.5 76.0427 193.447 76.1731C193.394 76.3036 193.37 76.4435 193.375 76.5836C193.381 76.7237 193.416 76.8609 193.479 76.986C196.866 83.9127 198.099 91.246 197.179 98.986L193.219 100.446C191.679 93.426 193.549 80.976 186.209 77.346C182.849 75.676 178.679 77.706 175.579 79.366C175.456 79.4314 175.349 79.5218 175.263 79.6315C175.178 79.7413 175.116 79.8679 175.082 80.0034C175.048 80.1389 175.043 80.2803 175.067 80.4185C175.09 80.5566 175.142 80.6886 175.219 80.806C180.309 88.466 179.499 96.206 179.719 104.946L174.509 106.486C174.416 102.653 174.409 98.8193 174.489 94.986C174.519 93.796 172.339 81.096 168.969 82.446C166.729 76.836 173.529 74.856 177.329 73.136C180.776 71.576 183.832 71.236 186.499 72.116C188.399 72.736 189.366 72.0493 189.399 70.056C189.499 64.096 189.819 58.626 189.249 52.446C188.439 43.726 188.429 36.696 184.879 27.956C184.807 27.7794 184.689 27.6272 184.539 27.516C174.019 19.956 155.009 29.956 144.999 35.436L135.859 40.716C132.192 39.7627 128.546 39.5193 124.919 39.986C118.949 40.756 114.709 39.376 109.389 38.546C106.999 38.176 106.169 36.776 105.209 34.766C110.582 28.4327 117.002 23.7427 124.469 20.696C136.889 15.4893 149.499 12.0493 162.299 10.376C162.439 10.356 162.569 10.3093 162.689 10.236C164.729 8.98267 165.186 8.12599 164.059 7.66599C163.899 7.60599 163.899 7.56267 164.059 7.536C164.626 7.42267 164.499 7.23933 163.679 6.986C172.312 6.046 180.259 7.22266 187.519 10.516C189.366 11.3493 190.529 12.746 191.009 14.706L204.969 71.736Z" fill="#01153D"/>
<path d="M122.969 13.196C125.139 13.336 124.669 19.186 124.469 20.696C117.002 23.7427 110.582 28.4326 105.209 34.766C100.756 47.686 102.842 59.356 111.469 69.776C114.749 73.9893 118.496 77.7393 122.709 81.026C122.884 81.1684 123.007 81.3691 123.059 81.596C123.446 83.2493 123.082 84.6993 121.969 85.946L105.859 84.696L95.509 83.046L94.689 79.686C94.6576 79.556 94.6529 79.4208 94.6752 79.2885C94.6975 79.1562 94.7465 79.0294 94.819 78.916C95.829 77.346 94.409 74.486 94.199 73.236C93.0123 66.1293 92.479 58.986 92.599 51.806C92.699 45.996 91.959 38.216 93.029 31.546C93.6557 27.706 93.339 24.0926 92.079 20.706L122.969 13.196Z" fill="#3A4F78"/>
<path d="M168.969 82.446C162.002 83.8193 154.739 84.766 147.179 85.286C147.672 81.4326 147.736 78.2726 147.369 75.806C146.439 69.546 146.819 64.936 146.749 59.066C146.662 51.186 146.079 43.3093 144.999 35.436C155.009 29.956 174.019 19.956 184.539 27.516C184.689 27.6272 184.807 27.7794 184.879 27.956C188.429 36.696 188.439 43.726 189.249 52.446C189.819 58.626 189.499 64.096 189.399 70.056C189.366 72.0493 188.399 72.736 186.499 72.116C183.832 71.236 180.776 71.576 177.329 73.136C173.529 74.856 166.729 76.836 168.969 82.446Z" fill="#0C214B"/>
<path d="M76.179 78.236L74.719 77.946C68.459 75.906 62.4723 73.2527 56.759 69.986L69.509 31.736C70.529 30.3093 70.7323 30.936 70.119 33.616C70.0798 33.7931 70.0867 33.9789 70.139 34.156C70.839 36.256 70.5257 38.0527 69.199 39.546C69.0534 39.7099 68.9658 39.9172 68.9495 40.1358C68.9333 40.3544 68.9893 40.5723 69.109 40.756L70.229 42.456C70.329 42.6027 70.3823 42.7627 70.389 42.936C70.849 49.386 69.749 55.946 70.139 62.496C70.299 65.126 69.519 69.056 70.809 72.476C70.8746 72.6592 70.8884 72.8564 70.849 73.046L70.579 74.236C70.5222 74.4901 70.5677 74.7566 70.7059 74.9788C70.8441 75.2011 71.0641 75.3615 71.319 75.426L75.689 76.496C75.8318 76.532 75.9652 76.5986 76.0797 76.691C76.1942 76.7834 76.2871 76.8994 76.3519 77.0309C76.4167 77.1623 76.4518 77.3061 76.4548 77.4521C76.4577 77.5981 76.4284 77.7428 76.369 77.876C76.3157 77.996 76.2523 78.116 76.179 78.236Z" fill="#7585A8"/>
<path d="M105.209 34.766C106.169 36.776 106.999 38.176 109.389 38.546C114.709 39.376 118.949 40.756 124.919 39.986C128.546 39.5193 132.192 39.7627 135.859 40.716C126.529 46.676 116.769 56.566 119.079 68.096C119.419 69.786 118.639 71.676 116.679 69.906C116.486 69.7383 116.236 69.6491 115.979 69.656L111.469 69.776C102.842 59.356 100.756 47.686 105.209 34.766Z" fill="#0C214B"/>
<path d="M144.999 35.436C146.079 43.3093 146.662 51.186 146.749 59.066C146.819 64.936 146.439 69.546 147.369 75.806C147.736 78.2727 147.672 81.4326 147.179 85.286L141.899 85.746C135.112 86.1726 128.469 86.2393 121.969 85.946C123.082 84.6993 123.446 83.2493 123.059 81.596C123.007 81.3691 122.884 81.1684 122.709 81.026C118.496 77.7393 114.749 73.9893 111.469 69.776L115.979 69.656C116.236 69.6491 116.486 69.7383 116.679 69.906C118.639 71.676 119.419 69.786 119.079 68.096C116.769 56.566 126.529 46.676 135.859 40.716L144.999 35.436Z" fill="#233A63"/>
<path d="M56.759 69.986C62.4723 73.2526 68.459 75.906 74.719 77.946C74.1057 77.8793 73.539 77.946 73.019 78.146C72.874 78.2011 72.7439 78.2916 72.6395 78.4099C72.5352 78.5282 72.4596 78.6708 72.419 78.826C71.9523 80.5993 71.779 82.406 71.899 84.246C72.419 92.1393 72.4423 100.039 71.969 107.946C63.309 105.393 55.379 101.406 48.179 95.986L53.679 78.736L56.759 69.986Z" fill="#FEB892"/>
<path d="M204.969 71.736L210.469 93.396C210.525 93.6168 210.504 93.8502 210.41 94.0575C210.315 94.2648 210.153 94.4336 209.949 94.536C205.922 96.5893 201.762 98.336 197.469 99.776L197.179 98.986C198.099 91.246 196.866 83.9126 193.479 76.986C193.416 76.8608 193.381 76.7237 193.375 76.5835C193.37 76.4434 193.394 76.3035 193.447 76.1731C193.5 76.0427 193.58 75.9247 193.682 75.8269C193.784 75.7291 193.906 75.6538 194.039 75.606L204.969 71.736Z" fill="#E0662A"/>
<path d="M204.969 71.736C217.249 72.936 276.449 79.086 255.789 104.756C245.559 115.056 227.319 121.156 213.639 125.136C186.492 133.029 158.842 137.949 130.689 139.896C95.039 142.356 58.399 140.936 25.049 127.906C20.8157 126.246 15.5557 123.663 9.26899 120.156C4.47899 116.006 0.298985 110.516 0.708985 104.126C4.43565 111.173 10.0923 116.043 17.679 118.736C31.239 125.436 45.5023 130.006 60.469 132.446C75.1157 134.866 89.8657 136.033 104.719 135.946C113.986 135.926 123.236 135.509 132.469 134.696C152.442 133.256 172.332 130.226 192.139 125.606C192.31 125.564 192.467 125.478 192.595 125.357C192.723 125.236 192.817 125.084 192.869 124.916C194.136 120.729 193.742 116.586 191.689 112.486C191.009 111.126 190.559 109.913 190.339 108.846C190.31 108.71 190.252 108.581 190.17 108.469C190.087 108.356 189.982 108.262 189.86 108.192C189.739 108.123 189.604 108.079 189.464 108.064C189.325 108.049 189.183 108.063 189.049 108.106C170.362 114.066 151.252 117.873 131.719 119.526C122.299 119.933 112.882 119.849 103.469 119.276C87.949 117.963 73.0323 114.269 58.719 108.196C54.1723 105.889 49.6623 103.153 45.189 99.986C45.0285 99.8726 44.9049 99.7144 44.8338 99.5312C44.7627 99.348 44.7471 99.148 44.789 98.956C45.349 96.356 46.479 95.366 48.179 95.986C55.379 101.406 63.309 105.393 71.969 107.946C76.2957 109.466 80.7123 110.633 85.219 111.446C91.799 112.993 98.4657 113.909 105.219 114.196C118.452 115.329 131.632 114.926 144.759 112.986C154.832 111.806 164.736 109.793 174.469 106.946C182.342 105.226 190.009 102.836 197.469 99.776C201.762 98.336 205.922 96.5893 209.949 94.536C210.153 94.4336 210.315 94.2648 210.41 94.0575C210.504 93.8502 210.525 93.6168 210.469 93.396L204.969 71.736Z" fill="#01153D"/>
<path d="M193.219 100.446L179.719 104.946C179.499 96.206 180.309 88.466 175.219 80.806C175.142 80.6886 175.09 80.5567 175.067 80.4185C175.043 80.2803 175.048 80.1389 175.082 80.0034C175.116 79.868 175.178 79.7413 175.263 79.6315C175.349 79.5218 175.456 79.4314 175.579 79.366C178.679 77.706 182.849 75.676 186.209 77.346C193.549 80.976 191.679 93.426 193.219 100.446Z" fill="#0C214B"/>
<path d="M74.719 77.946L76.179 78.236L85.269 80.916C84.669 85.5493 84.639 90.1327 85.179 94.666C85.2323 95.0727 85.329 95.096 85.469 94.736L85.549 94.536C85.7757 93.9693 85.8723 94.146 85.839 95.066L85.219 111.446C80.7123 110.633 76.2957 109.466 71.969 107.946C72.4423 100.039 72.419 92.1393 71.899 84.246C71.779 82.406 71.9523 80.5993 72.419 78.826C72.4596 78.6709 72.5352 78.5283 72.6395 78.41C72.7439 78.2917 72.874 78.2012 73.019 78.146C73.539 77.946 74.1057 77.8794 74.719 77.946Z" fill="#FFA574"/>
<path d="M53.679 78.736L48.179 95.986C46.479 95.366 45.349 96.356 44.789 98.956C44.7471 99.148 44.7627 99.348 44.8338 99.5312C44.905 99.7144 45.0285 99.8726 45.189 99.986C49.6623 103.153 54.1723 105.889 58.719 108.196C58.5323 108.129 58.3323 108.099 58.119 108.106C58.021 108.107 57.9246 108.131 57.8372 108.175C57.7498 108.219 57.6737 108.283 57.6147 108.361C57.5558 108.439 57.5156 108.53 57.4973 108.626C57.479 108.722 57.483 108.822 57.509 108.916C58.479 112.356 60.129 115.176 60.509 118.596C61.029 123.223 61.0157 127.839 60.469 132.446C45.5023 130.006 31.239 125.436 17.679 118.736C18.4723 117.616 18.7523 116.389 18.519 115.056C17.489 109.166 17.299 102.836 16.839 96.846C16.8195 96.6125 16.7206 96.3936 16.559 96.226C15.2257 94.8593 14.779 93.266 15.219 91.446C27.5923 85.8793 40.4123 81.6426 53.679 78.736Z" fill="#54678E"/>
<path d="M85.269 80.916L95.509 83.046L105.859 84.696C105.259 90.276 104.692 99.3727 104.159 111.986C104.106 113.159 104.459 113.896 105.219 114.196C98.4657 113.909 91.799 112.993 85.219 111.446L85.839 95.066C85.8723 94.146 85.7757 93.9694 85.549 94.536L85.469 94.736C85.329 95.096 85.2323 95.0727 85.179 94.666C84.639 90.1327 84.669 85.5493 85.269 80.916Z" fill="#FF8C4E"/>
<path d="M174.509 106.486L174.469 106.946C164.736 109.793 154.832 111.806 144.759 112.986C144.899 103.766 143.946 94.686 141.899 85.746L147.179 85.286C154.739 84.766 162.002 83.8194 168.969 82.446C172.339 81.096 174.519 93.796 174.489 94.986C174.409 98.8194 174.416 102.653 174.509 106.486Z" fill="#E0662A"/>
<path d="M105.859 84.696L121.969 85.946C128.469 86.2393 135.112 86.1726 141.899 85.746C143.946 94.686 144.899 103.766 144.759 112.986C131.632 114.926 118.452 115.329 105.219 114.196C104.459 113.896 104.106 113.159 104.159 111.986C104.692 99.3726 105.259 90.276 105.859 84.696Z" fill="#FE7B36"/>
<path d="M15.219 91.446C14.779 93.266 15.2256 94.8593 16.559 96.226C16.7205 96.3936 16.8194 96.6126 16.839 96.846C17.299 102.836 17.489 109.166 18.519 115.056C18.7523 116.389 18.4723 117.616 17.679 118.736C10.0923 116.043 4.43565 111.173 0.708984 104.126C2.65898 97.766 9.46899 93.746 15.219 91.446Z" fill="#7585A8"/>
<path d="M197.179 98.986L197.469 99.776C190.009 102.836 182.342 105.226 174.469 106.946L174.509 106.486L179.719 104.946L193.219 100.446L197.179 98.986Z" fill="#3A4F78"/>
<path d="M255.789 104.756C259.509 108.489 261.806 112.899 262.679 117.986C261.799 118.033 261.409 117.483 261.509 116.336C261.516 116.253 261.503 116.169 261.47 116.092C261.437 116.015 261.385 115.948 261.32 115.895C261.255 115.843 261.178 115.807 261.096 115.792C261.014 115.776 260.929 115.781 260.849 115.806C260.456 115.926 260.309 116.156 260.409 116.496C260.576 117.083 260.432 117.169 259.979 116.756C258.472 115.383 257.129 113.679 255.949 111.646C255.342 110.593 255.219 109.503 255.579 108.376C255.633 108.208 255.631 108.026 255.571 107.86C255.511 107.693 255.398 107.551 255.249 107.456C254.736 107.129 254.146 107.236 253.479 107.776C249.179 111.326 242.199 116.216 236.849 117.146C236.813 117.152 236.78 117.164 236.757 117.18C236.733 117.197 236.719 117.217 236.719 117.236V117.506C236.719 117.557 236.704 117.607 236.678 117.649C236.651 117.691 236.614 117.725 236.569 117.746C231.409 120.213 226.086 122.236 220.599 123.816C220.539 123.829 219.292 124.296 216.859 125.216C215.586 125.689 214.239 125.939 212.819 125.966C212.648 125.969 212.48 126.015 212.333 126.099C212.186 126.183 212.064 126.302 211.979 126.446C211.759 126.819 211.426 127.009 210.979 127.016C210.339 127.023 209.772 127.129 209.279 127.336C208.779 127.549 208.766 127.793 209.239 128.066C209.606 128.279 209.489 128.483 208.889 128.676C208.751 128.72 208.605 128.732 208.459 128.711C208.314 128.69 208.174 128.637 208.049 128.556C207.076 127.929 206.302 128.006 205.729 128.786C205.618 128.936 205.466 129.054 205.289 129.126L201.069 130.806C200.855 130.897 200.676 131.055 200.559 131.256C199.972 132.316 199.216 132.916 198.289 133.056C195.742 133.429 193.699 134.409 192.159 135.996C192.064 136.091 191.952 136.167 191.83 136.218C191.709 136.27 191.579 136.296 191.449 136.296L177.339 136.406C177.163 136.406 176.99 136.454 176.839 136.546C175.726 137.206 174.599 137.423 173.459 137.196C173.376 137.179 173.289 137.183 173.208 137.208C173.127 137.233 173.053 137.277 172.993 137.338C172.934 137.399 172.89 137.473 172.867 137.555C172.843 137.637 172.841 137.723 172.859 137.806C173.159 139.216 169.869 138.756 169.139 138.726C168.976 138.72 168.814 138.754 168.668 138.826C168.521 138.897 168.394 139.004 168.299 139.136C167.732 139.903 166.976 140.409 166.029 140.656C165.803 140.714 165.604 140.852 165.469 141.046L163.059 144.396C162.949 144.551 162.797 144.671 162.621 144.742C162.446 144.813 162.254 144.832 162.069 144.796C159.376 144.283 157.292 145.119 155.819 147.306C155.723 147.445 155.596 147.557 155.447 147.634C155.299 147.711 155.135 147.749 154.969 147.746C152.802 147.699 151.059 148.503 149.739 150.156C149.626 150.293 149.48 150.398 149.316 150.461C149.151 150.524 148.973 150.543 148.799 150.516C146.459 150.149 144.396 150.743 142.609 152.296C142.5 152.39 142.371 152.459 142.231 152.499C142.091 152.539 141.944 152.548 141.799 152.526C138.966 152.086 136.636 152.939 134.809 155.086C134.691 155.224 134.539 155.327 134.369 155.386C132.076 156.173 130.016 157.333 128.189 158.866C128.039 158.996 127.854 159.077 127.659 159.096C125.926 159.283 124.482 159.946 123.329 161.086C123.269 161.146 122.942 161.316 122.349 161.596C121.309 162.083 120.756 162.953 120.689 164.206C120.669 164.469 120.551 164.713 120.359 164.886C119.386 165.773 119.472 166.509 120.619 167.096C120.783 167.181 120.921 167.309 121.019 167.466C122.672 170.133 124.972 170.993 127.919 170.046C128.122 169.982 128.34 169.984 128.541 170.053C128.743 170.121 128.917 170.252 129.039 170.426L129.839 171.556C129.926 171.678 130.04 171.779 130.172 171.852C130.303 171.924 130.449 171.967 130.599 171.976C132.212 172.063 133.279 172.856 133.799 174.356C133.864 174.542 133.983 174.705 134.141 174.825C134.3 174.944 134.49 175.014 134.689 175.026L139.139 175.276C139.252 175.283 139.362 175.313 139.462 175.366C139.562 175.418 139.65 175.491 139.72 175.58C139.79 175.669 139.84 175.771 139.868 175.881C139.895 175.991 139.899 176.105 139.879 176.216L139.829 176.486C139.818 176.557 139.821 176.629 139.838 176.698C139.855 176.768 139.887 176.833 139.93 176.889C139.973 176.945 140.027 176.992 140.089 177.026C140.151 177.06 140.219 177.08 140.289 177.086L141.999 177.246C142.231 177.265 142.451 177.368 142.619 177.536C143.412 178.343 144.302 178.529 145.289 178.096C145.496 178.006 145.73 177.992 145.949 178.056C147.962 178.596 150.542 178.629 153.689 178.156C154.549 178.023 154.662 178.256 154.029 178.856C153.522 179.336 152.436 179.523 150.769 179.416C150.336 179.389 150.336 179.376 150.769 179.376C153.569 179.409 156.366 179.506 159.159 179.666C159.159 179.666 159.472 179.696 159.159 179.696H138.469C103.539 178.256 68.509 168.386 37.129 149.096C24.8157 141.529 15.529 131.883 9.26901 120.156C15.5557 123.663 20.8157 126.246 25.049 127.906C58.399 140.936 95.039 142.356 130.689 139.896C158.842 137.949 186.492 133.029 213.639 125.136C227.319 121.156 245.559 115.056 255.789 104.756Z" fill="#C4CBD9"/>
<path d="M262.679 117.986C263.292 121.773 262.947 124.787 262 128.5C261.433 129.087 260.899 130.156 260.039 130.236C259.892 130.248 259.751 130.302 259.633 130.392C259.514 130.483 259.423 130.605 259.369 130.746C259.216 131.139 258.949 131.276 258.569 131.156C258.378 131.096 258.171 131.11 257.989 131.195C257.808 131.28 257.665 131.43 257.589 131.616L257.009 133.026C256.989 133.079 256.966 133.129 256.939 133.176L253.529 138.656C253.44 138.8 253.389 138.963 253.38 139.131C253.372 139.299 253.406 139.466 253.479 139.616L254.529 141.776C254.639 142 254.662 142.257 254.593 142.495C254.525 142.734 254.37 142.938 254.159 143.066L252.689 143.966C252.561 144.044 252.417 144.093 252.268 144.108C252.119 144.124 251.969 144.106 251.829 144.056C251.369 143.883 251.142 144.056 251.149 144.576C251.149 144.758 251.101 144.937 251.01 145.093C250.918 145.25 250.787 145.378 250.629 145.466C249.976 145.826 249.466 146.303 249.099 146.896C248.999 147.049 248.952 147.079 248.959 146.986L248.979 146.666C248.999 146.113 248.812 146.026 248.419 146.406L247.219 147.566C247.052 147.727 246.947 147.942 246.921 148.174C246.896 148.405 246.952 148.639 247.079 148.836C247.279 149.136 247.249 149.233 246.989 149.126C246.925 149.098 246.855 149.083 246.784 149.084C246.714 149.084 246.644 149.1 246.579 149.129C246.514 149.158 246.456 149.2 246.408 149.253C246.36 149.306 246.322 149.368 246.299 149.436C246.026 150.263 245.589 150.976 244.989 151.576C244.869 151.695 244.782 151.843 244.735 152.005C244.688 152.168 244.682 152.34 244.719 152.506L245.009 153.736L243.509 154.876C242.569 154.083 241.556 153.863 240.469 154.216C240.036 154.356 239.729 154.719 239.549 155.306C239.501 155.468 239.411 155.615 239.288 155.732C239.165 155.85 239.014 155.934 238.849 155.976C237.936 156.216 237.236 156.766 236.749 157.626C236.68 157.748 236.586 157.854 236.474 157.937C236.362 158.02 236.234 158.077 236.099 158.106C234.819 158.399 233.722 159.036 232.809 160.016C232.666 160.165 232.575 160.358 232.549 160.566C232.429 161.506 231.889 161.846 230.929 161.586C230.791 161.548 230.647 161.539 230.508 161.56C230.368 161.581 230.236 161.63 230.119 161.706C228.519 162.746 226.709 163.066 225.099 164.046C223.306 165.133 221.352 165.869 219.239 166.256C219.063 166.289 218.899 166.369 218.763 166.489C218.628 166.609 218.526 166.763 218.469 166.936C218.296 167.483 218.016 167.929 217.629 168.276C217.262 168.609 217.326 168.763 217.819 168.736L218.469 168.696C193.919 178.286 186 178.856 159.159 179.666V179.696C159.472 179.696 159.472 179.686 159.159 179.666C156.366 179.506 153.569 179.409 150.769 179.376C150.336 179.376 150.336 179.389 150.769 179.416C152.436 179.523 153.522 179.336 154.029 178.856C154.662 178.256 154.549 178.023 153.689 178.156C150.542 178.629 147.962 178.596 145.949 178.056C145.729 177.992 145.496 178.006 145.289 178.096C144.302 178.529 143.412 178.343 142.619 177.536C142.451 177.368 142.231 177.265 141.999 177.246L140.289 177.086C140.219 177.08 140.151 177.06 140.089 177.026C140.027 176.992 139.973 176.945 139.93 176.889C139.887 176.833 139.855 176.768 139.838 176.698C139.821 176.629 139.818 176.557 139.829 176.486L139.879 176.216C139.899 176.105 139.895 175.991 139.868 175.881C139.84 175.771 139.79 175.669 139.72 175.58C139.65 175.491 139.562 175.418 139.462 175.366C139.362 175.313 139.252 175.283 139.139 175.276L134.689 175.026C134.49 175.014 134.3 174.944 134.141 174.825C133.983 174.705 133.864 174.542 133.799 174.356C133.279 172.856 132.212 172.063 130.599 171.976C130.449 171.967 130.303 171.924 130.172 171.852C130.04 171.779 129.926 171.678 129.839 171.556L129.039 170.426C128.917 170.252 128.743 170.121 128.541 170.053C128.34 169.984 128.122 169.982 127.919 170.046C124.972 170.993 122.672 170.133 121.019 167.466C120.921 167.309 120.783 167.181 120.619 167.096C119.472 166.509 119.386 165.773 120.359 164.886C120.551 164.713 120.669 164.469 120.689 164.206C120.756 162.953 121.309 162.083 122.349 161.596C122.942 161.316 123.269 161.146 123.329 161.086C124.482 159.946 125.926 159.283 127.659 159.096C127.854 159.077 128.039 158.996 128.189 158.866C130.016 157.333 132.076 156.173 134.369 155.386C134.539 155.327 134.691 155.224 134.809 155.086C136.636 152.939 138.966 152.086 141.799 152.526C141.944 152.548 142.091 152.539 142.231 152.499C142.371 152.459 142.5 152.39 142.609 152.296C144.396 150.743 146.459 150.149 148.799 150.516C148.973 150.543 149.151 150.524 149.316 150.461C149.48 150.398 149.626 150.293 149.739 150.156C151.059 148.503 152.802 147.699 154.969 147.746C155.135 147.749 155.299 147.711 155.447 147.634C155.596 147.557 155.723 147.445 155.819 147.306C157.292 145.119 159.376 144.283 162.069 144.796C162.254 144.832 162.446 144.813 162.621 144.742C162.797 144.671 162.949 144.551 163.059 144.396L165.469 141.046C165.604 140.852 165.803 140.714 166.029 140.656C166.976 140.409 167.732 139.903 168.299 139.136C168.394 139.004 168.521 138.897 168.668 138.826C168.814 138.754 168.976 138.72 169.139 138.726C169.869 138.756 173.159 139.216 172.859 137.806C172.841 137.723 172.843 137.637 172.867 137.555C172.89 137.473 172.934 137.399 172.993 137.338C173.053 137.277 173.127 137.233 173.208 137.208C173.289 137.183 173.376 137.179 173.459 137.196C174.599 137.423 175.726 137.206 176.839 136.546C176.99 136.454 177.163 136.406 177.339 136.406L191.449 136.296C191.579 136.296 191.708 136.27 191.83 136.218C191.952 136.167 192.064 136.091 192.159 135.996C193.699 134.409 195.742 133.429 198.289 133.056C199.216 132.916 199.972 132.316 200.559 131.256C200.676 131.055 200.855 130.897 201.069 130.806L205.289 129.126C205.466 129.054 205.618 128.936 205.729 128.786C206.302 128.006 207.076 127.929 208.049 128.556C208.174 128.637 208.314 128.69 208.459 128.711C208.605 128.732 208.751 128.72 208.889 128.676C209.489 128.483 209.606 128.279 209.239 128.066C208.766 127.793 208.779 127.549 209.279 127.336C209.772 127.129 210.339 127.023 210.979 127.016C211.426 127.009 211.759 126.819 211.979 126.446C212.064 126.302 212.186 126.183 212.333 126.099C212.48 126.015 212.648 125.969 212.819 125.966C214.239 125.939 215.586 125.689 216.859 125.216C219.292 124.296 220.539 123.829 220.599 123.816C226.086 122.236 231.409 120.213 236.569 117.746C236.614 117.725 236.651 117.691 236.678 117.649C236.704 117.607 236.719 117.557 236.719 117.506V117.236C236.719 117.217 236.733 117.197 236.757 117.18C236.78 117.164 236.813 117.152 236.849 117.146C242.199 116.216 249.179 111.326 253.479 107.776C254.146 107.236 254.736 107.129 255.249 107.456C255.398 107.551 255.511 107.693 255.571 107.86C255.631 108.026 255.633 108.208 255.579 108.376C255.219 109.503 255.342 110.593 255.949 111.646C257.129 113.679 258.472 115.383 259.979 116.756C260.432 117.169 260.576 117.083 260.409 116.496C260.309 116.156 260.456 115.926 260.849 115.806C260.929 115.781 261.014 115.776 261.096 115.792C261.178 115.807 261.255 115.843 261.32 115.895C261.385 115.948 261.437 116.015 261.47 116.092C261.503 116.169 261.516 116.253 261.509 116.336C261.409 117.483 261.799 118.033 262.679 117.986Z" fill="#C4CBD9"/>
<path d="M58.719 108.196C73.0323 114.269 87.949 117.963 103.469 119.276C103.682 119.649 103.982 119.883 104.369 119.976C104.549 120.021 104.714 120.114 104.844 120.245C104.975 120.375 105.066 120.538 105.109 120.716C105.989 124.509 106.296 128.349 106.029 132.236C105.976 132.963 106.029 133.686 106.189 134.406C106.246 134.652 106.207 134.911 106.081 135.13C105.955 135.349 105.75 135.512 105.509 135.586C105.216 135.673 104.952 135.793 104.719 135.946C89.8657 136.033 75.1157 134.866 60.469 132.446C61.0157 127.839 61.029 123.223 60.509 118.596C60.129 115.176 58.479 112.356 57.509 108.916C57.483 108.822 57.479 108.722 57.4973 108.626C57.5156 108.53 57.5558 108.439 57.6148 108.361C57.6737 108.283 57.7498 108.219 57.8372 108.175C57.9246 108.131 58.021 108.107 58.119 108.106C58.3323 108.099 58.5323 108.129 58.719 108.196Z" fill="#3A4F78"/>
<path d="M132.469 134.696C132.589 134.363 132.789 134.136 133.069 134.016C133.23 133.948 133.364 133.828 133.45 133.677C133.537 133.525 133.572 133.349 133.549 133.176L131.719 119.526C151.252 117.873 170.362 114.066 189.049 108.106C189.183 108.064 189.325 108.049 189.464 108.064C189.604 108.079 189.739 108.123 189.86 108.192C189.982 108.262 190.087 108.356 190.17 108.469C190.252 108.581 190.31 108.71 190.339 108.846C190.559 109.913 191.009 111.126 191.689 112.486C193.742 116.586 194.136 120.729 192.869 124.916C192.817 125.084 192.723 125.236 192.595 125.357C192.467 125.478 192.31 125.564 192.139 125.606C172.332 130.226 152.442 133.256 132.469 134.696Z" fill="#0C214B"/>
<path d="M103.469 119.276C112.882 119.849 122.299 119.933 131.719 119.526L133.549 133.176C133.572 133.349 133.537 133.525 133.45 133.677C133.364 133.828 133.23 133.948 133.069 134.016C132.789 134.136 132.589 134.363 132.469 134.696C123.236 135.509 113.986 135.926 104.719 135.946C104.952 135.793 105.216 135.673 105.509 135.586C105.75 135.512 105.955 135.349 106.081 135.13C106.207 134.911 106.246 134.652 106.189 134.406C106.029 133.686 105.976 132.963 106.029 132.236C106.296 128.349 105.989 124.509 105.109 120.716C105.066 120.538 104.975 120.375 104.844 120.245C104.714 120.114 104.549 120.021 104.369 119.976C103.982 119.883 103.682 119.649 103.469 119.276Z" fill="#233A63"/>
<path d="M262 128.5C258.933 138.52 253.389 147.423 245.009 153.736L244.719 152.506C244.682 152.34 244.688 152.168 244.735 152.005C244.782 151.843 244.869 151.695 244.989 151.576C245.589 150.976 246.026 150.263 246.299 149.436C246.322 149.368 246.36 149.306 246.408 149.253C246.456 149.2 246.514 149.158 246.579 149.129C246.644 149.1 246.714 149.084 246.784 149.084C246.855 149.083 246.925 149.098 246.989 149.126C247.249 149.233 247.279 149.136 247.079 148.836C246.952 148.639 246.896 148.405 246.921 148.174C246.947 147.942 247.052 147.727 247.219 147.566L248.419 146.406C248.812 146.026 248.999 146.113 248.979 146.666L248.959 146.986C248.952 147.079 248.999 147.049 249.099 146.896C249.466 146.303 249.976 145.826 250.629 145.466C250.787 145.378 250.918 145.25 251.01 145.093C251.101 144.937 251.149 144.758 251.149 144.576C251.142 144.056 251.369 143.883 251.829 144.056C251.969 144.106 252.119 144.124 252.268 144.108C252.417 144.093 252.561 144.044 252.689 143.966L254.159 143.066C254.37 142.937 254.525 142.734 254.593 142.495C254.662 142.257 254.639 142 254.529 141.776L253.479 139.616C253.406 139.466 253.372 139.299 253.38 139.131C253.389 138.963 253.44 138.8 253.529 138.656L256.939 133.176C256.966 133.129 256.989 133.079 257.009 133.026L257.589 131.616C257.665 131.43 257.808 131.28 257.989 131.195C258.171 131.11 258.378 131.096 258.569 131.156C258.949 131.276 259.216 131.139 259.369 130.746C259.423 130.605 259.514 130.483 259.633 130.392C259.751 130.302 259.892 130.248 260.039 130.236C260.899 130.156 261.433 129.087 262 128.5Z" fill="#C4CBD9"/>
<path d="M243.509 154.876C235.829 160.803 227.482 165.409 218.469 168.696L217.819 168.736C217.326 168.763 217.262 168.609 217.629 168.276C218.016 167.929 218.296 167.483 218.469 166.936C218.526 166.763 218.628 166.609 218.763 166.489C218.899 166.369 219.063 166.289 219.239 166.256C221.352 165.869 223.306 165.133 225.099 164.046C226.709 163.066 228.519 162.746 230.119 161.706C230.236 161.63 230.368 161.581 230.508 161.56C230.647 161.539 230.791 161.548 230.929 161.586C231.889 161.846 232.429 161.506 232.549 160.566C232.575 160.358 232.666 160.166 232.809 160.016C233.722 159.036 234.819 158.399 236.099 158.106C236.234 158.078 236.362 158.02 236.474 157.937C236.586 157.854 236.68 157.748 236.749 157.626C237.236 156.766 237.936 156.216 238.849 155.976C239.014 155.934 239.165 155.85 239.288 155.732C239.411 155.615 239.501 155.468 239.549 155.306C239.729 154.719 240.036 154.356 240.469 154.216C241.556 153.863 242.569 154.083 243.509 154.876Z" fill="#C4CBD9"/>
</svg>
