<svg width="1024" height="1024" viewBox="0 0 1024 1024" fill="none" xmlns="http://www.w3.org/2000/svg">
<path d="M493.033 230.419C489.45 233.591 485.136 235.346 480.091 235.683L367.155 262.76C332.325 276.822 315.983 270.452 318.128 243.651C318.713 236.416 321.43 229.794 326.281 223.784C339.686 207.127 357.211 195.914 378.855 190.145C419.29 183.763 461.043 205 493.033 230.419Z" fill="#01153D"/>
<path d="M629.042 213.343C632.04 214.256 632.503 214.917 630.431 215.326C629.846 215.422 629.846 215.578 630.431 215.795C634.55 217.453 632.881 220.542 625.422 225.061C624.984 225.325 624.508 225.493 623.996 225.566C577.199 231.599 531.096 244.002 485.688 262.774C486.419 257.33 488.138 236.238 480.204 235.733C485.249 235.397 489.563 233.642 493.146 230.469C495.559 232.224 497.948 232.825 500.312 232.272C542.674 222.345 585.583 216.035 629.042 213.343Z" fill="#233A63"/>
<path d="M480.091 235.683L367.155 262.76" stroke="#1E325B" stroke-width="2"/>
<path d="M485.575 262.724C486.306 257.28 488.024 236.187 480.091 235.683" stroke="#2F456E" stroke-width="2"/>
<path d="M367.155 262.76C371.762 274.971 372.92 287.999 370.629 301.844C366.717 325.893 369.422 353.943 369.056 374.891C368.618 400.779 370.568 426.534 374.906 452.158C375.674 456.664 380.865 466.976 377.173 472.637C376.908 473.046 376.729 473.503 376.647 473.98C376.565 474.457 376.583 474.945 376.698 475.413L379.695 487.528" stroke="#475B83" stroke-width="2"/>
<path d="M379.695 487.527L342.258 479.848" stroke="#AA7A6E" stroke-width="2"/>
<path d="M342.258 479.848L309.024 470.185" stroke="#AA8681" stroke-width="2"/>
<path d="M415.159 313.453C398.878 360.037 406.507 402.113 438.046 439.682" stroke="#233862" stroke-width="2"/>
<path d="M438.046 439.682C450.038 454.874 463.736 468.394 479.14 480.244C479.78 480.758 480.231 481.482 480.42 482.3C481.833 488.261 480.505 493.489 476.435 497.984" stroke="#2F456E" stroke-width="2"/>
<path d="M476.435 497.983L417.536 493.477" stroke="#9C6557" stroke-width="2"/>
<path d="M417.536 493.477L379.695 487.527" stroke="#9D6E63" stroke-width="2"/>
<path d="M779.887 446.749L739.926 460.703C739.439 460.875 738.995 461.147 738.622 461.499C738.249 461.852 737.956 462.277 737.763 462.747C737.569 463.218 737.48 463.722 737.5 464.227C737.52 464.732 737.649 465.227 737.879 465.678C750.261 490.652 754.77 517.093 751.406 544.999" stroke="#713E34" stroke-width="2"/>
<path d="M751.406 544.999L736.928 550.263" stroke="#1E325B" stroke-width="2"/>
<path d="M736.928 550.263C731.298 524.953 738.135 480.064 711.299 466.976C699.015 460.955 683.769 468.274 672.435 474.259C671.987 474.495 671.594 474.821 671.281 475.217C670.968 475.612 670.743 476.069 670.619 476.558C670.495 477.046 670.476 477.556 670.562 478.054C670.648 478.552 670.838 479.028 671.119 479.451C689.729 507.069 686.767 534.976 687.572 566.488" stroke="#071B44" stroke-width="2"/>
<path d="M687.571 566.488L668.523 572.041" stroke="#1E325B" stroke-width="2"/>
<path d="M668.524 572.041C668.182 558.219 668.158 544.398 668.45 530.577C668.56 526.287 660.59 480.497 648.269 485.364" stroke="#713E34" stroke-width="2"/>
<path d="M648.269 485.364C640.079 465.137 664.941 457.998 678.834 451.797C691.435 446.172 702.61 444.947 712.36 448.119C719.306 450.355 722.84 447.879 722.962 440.692C723.328 419.203 724.498 399.481 722.414 377.199C719.452 345.759 719.416 320.412 706.437 288.9C706.173 288.263 705.743 287.714 705.194 287.314C666.732 260.056 597.231 296.111 560.633 315.869" stroke="#071B44" stroke-width="2"/>
<path d="M560.633 315.869L527.217 334.906" stroke="#122850" stroke-width="2"/>
<path d="M527.217 334.906C513.812 331.469 500.479 330.592 487.22 332.274C465.393 335.05 449.892 330.075 430.441 327.082C421.703 325.748 418.669 320.7 415.159 313.453" stroke="#071B44" stroke-width="2"/>
<path d="M415.159 313.453C434.804 290.619 458.276 273.709 485.575 262.724" stroke="#1E325B" stroke-width="2"/>
<path d="M417.536 493.477C415.342 513.595 413.27 546.393 411.32 591.871C411.125 596.101 412.417 598.757 415.196 599.839" stroke="#FF8442" stroke-width="2"/>
<path d="M342.258 479.848C340.064 496.553 339.954 513.078 341.929 529.423C342.124 530.89 342.477 530.974 342.989 529.676L343.281 528.955C344.11 526.912 344.463 527.549 344.341 530.866L342.075 589.924" stroke="#FF9961" stroke-width="2"/>
<path d="M309.024 470.185L303.686 469.139" stroke="#BA958E" stroke-width="2"/>
<path d="M303.686 469.139C280.799 461.784 258.912 452.217 238.024 440.439" stroke="#BA9F9D" stroke-width="2"/>
<path d="M568.604 495.604L549.3 497.262" stroke="#825047" stroke-width="2"/>
<path d="M549.3 497.262C524.487 498.801 500.199 499.041 476.435 497.983" stroke="#915B4D" stroke-width="2"/>
<path d="M527.217 334.906C493.106 356.395 457.423 392.054 465.869 433.625C467.112 439.718 464.26 446.533 457.094 440.151C456.389 439.547 455.475 439.225 454.535 439.25L438.046 439.682" stroke="#182E57" stroke-width="2"/>
<path d="M648.269 485.364C622.798 490.316 596.243 493.729 568.604 495.604" stroke="#76443B" stroke-width="2"/>
<path d="M568.604 495.604C570.407 481.711 570.639 470.317 569.298 461.424C565.898 438.853 567.287 422.232 567.032 401.067C566.715 372.656 564.582 344.257 560.633 315.869" stroke="#182E57" stroke-width="2"/>
<path d="M95.1451 616.208C144.721 640.365 196.869 656.842 251.587 665.64" stroke="#2B3E66" stroke-width="2"/>
<path d="M251.588 665.64C305.136 674.365 359.063 678.571 413.368 678.259" stroke="#1E325B" stroke-width="2"/>
<path d="M413.368 678.259C447.247 678.187 481.066 676.685 514.823 673.752" stroke="#122850" stroke-width="2"/>
<path d="M514.823 673.752C587.847 668.56 660.565 657.635 732.98 640.978C733.604 640.826 734.178 640.517 734.646 640.081C735.114 639.645 735.459 639.097 735.649 638.49C740.28 623.395 738.841 608.456 731.334 593.674C728.848 588.77 727.203 584.396 726.399 580.55C726.292 580.059 726.081 579.595 725.78 579.189C725.478 578.784 725.093 578.444 724.649 578.193C724.205 577.942 723.712 577.784 723.201 577.731C722.69 577.677 722.173 577.728 721.682 577.882C653.363 599.37 583.496 613.095 512.081 619.057" stroke="#071B44" stroke-width="2"/>
<path d="M512.081 619.057C477.641 620.523 443.213 620.222 408.798 618.155" stroke="#122850" stroke-width="2"/>
<path d="M408.798 618.155C352.056 613.42 297.52 600.104 245.189 578.206" stroke="#1E325B" stroke-width="2"/>
<path d="M245.189 578.206C228.566 569.889 212.078 560.022 195.723 548.605C195.136 548.196 194.684 547.626 194.424 546.965C194.164 546.305 194.107 545.583 194.261 544.891C196.308 535.517 200.439 531.947 206.655 534.183" stroke="#2B3E66" stroke-width="2"/>
<path d="M293.632 577.305C309.451 582.785 325.598 586.991 342.075 589.924" stroke="#805D59" stroke-width="2"/>
<path d="M342.075 589.924C366.132 595.5 390.505 598.806 415.196 599.839" stroke="#805146" stroke-width="2"/>
<path d="M415.196 599.839C463.577 603.925 511.764 602.471 559.756 595.477" stroke="#80483A" stroke-width="2"/>
<path d="M559.756 595.477C596.585 591.222 632.792 583.963 668.377 573.699" stroke="#713E34" stroke-width="2"/>
<path d="M668.377 573.699C697.163 567.498 725.192 558.881 752.466 547.848" stroke="#1E325B" stroke-width="2"/>
<path d="M736.928 550.263L687.571 566.488" stroke="#233862" stroke-width="2"/>
<path d="M779.887 446.749L799.995 524.845C800.2 525.641 800.124 526.482 799.778 527.23C799.432 527.977 798.838 528.586 798.094 528.955C783.372 536.358 768.163 542.656 752.466 547.848" stroke="#713E34" stroke-width="2"/>
<path d="M752.466 547.848L751.406 544.999" stroke="#8D5B51" stroke-width="2"/>
<path d="M668.524 572.041L668.377 573.699" stroke="#8D5B51" stroke-width="2"/>
<path d="M559.756 595.476C560.268 562.234 556.782 529.496 549.3 497.262" stroke="#EF7130" stroke-width="2"/>
<path d="M303.686 469.139C301.444 468.899 299.372 469.139 297.471 469.861C296.941 470.059 296.465 470.386 296.084 470.812C295.702 471.239 295.426 471.753 295.277 472.312C293.571 478.706 292.937 485.22 293.376 491.854C295.277 520.314 295.363 548.797 293.632 577.305" stroke="#FFAF83" stroke-width="2"/>
<path d="M293.632 577.305C261.971 568.099 232.978 553.725 206.655 534.183" stroke="#806768" stroke-width="2"/>
<path d="M206.655 534.183L226.763 471.988" stroke="#A99090" stroke-width="2"/>
<path d="M408.798 618.155C409.578 619.501 410.674 620.342 412.088 620.679C412.748 620.842 413.349 621.178 413.826 621.648C414.303 622.118 414.637 622.706 414.794 623.347C418.011 637.024 419.132 650.869 418.157 664.883C417.962 667.503 418.157 670.111 418.742 672.707C418.949 673.594 418.808 674.526 418.347 675.316C417.886 676.105 417.139 676.693 416.256 676.961C415.183 677.273 414.221 677.706 413.368 678.259" stroke="#2F456E" stroke-width="2"/>
<path d="M245.189 578.206C244.507 577.966 243.776 577.857 242.996 577.881C242.638 577.885 242.285 577.97 241.966 578.13C241.646 578.289 241.368 578.519 241.152 578.801C240.937 579.083 240.79 579.41 240.723 579.757C240.656 580.104 240.67 580.461 240.766 580.802C244.312 593.205 250.344 603.372 251.734 615.703C253.635 632.385 253.586 649.03 251.588 665.64" stroke="#475B83" stroke-width="2"/>
<path d="M514.823 673.752C515.262 672.55 515.993 671.733 517.017 671.3C517.604 671.054 518.094 670.624 518.411 670.077C518.728 669.53 518.855 668.896 518.772 668.272L512.081 619.057" stroke="#182E57" stroke-width="2"/>
<path d="M378.854 190.145C357.211 195.914 339.686 207.127 326.28 223.784C321.43 229.794 318.712 236.416 318.127 243.651C315.983 270.452 332.325 276.821 367.155 262.76C371.762 274.971 372.919 287.999 370.628 301.844C366.716 325.892 369.422 353.943 369.056 374.891C368.618 400.779 370.567 426.534 374.906 452.157C375.674 456.664 380.865 466.976 377.173 472.637C376.907 473.046 376.729 473.503 376.647 473.98C376.565 474.457 376.582 474.944 376.697 475.413L379.695 487.527L342.257 479.848L309.024 470.185C309.292 469.752 309.524 469.32 309.719 468.887C309.936 468.407 310.043 467.885 310.032 467.359C310.021 466.832 309.893 466.314 309.656 465.84C309.419 465.366 309.079 464.947 308.661 464.614C308.242 464.281 307.755 464.041 307.232 463.911L291.256 460.053C290.323 459.821 289.519 459.242 289.014 458.441C288.509 457.64 288.342 456.679 288.55 455.763L289.537 451.472C289.681 450.789 289.631 450.078 289.391 449.417C284.675 437.086 287.526 422.917 286.941 413.434C285.515 389.818 289.537 366.166 287.855 342.91C287.831 342.285 287.636 341.709 287.27 341.18L283.176 335.05C282.738 334.388 282.533 333.603 282.593 332.814C282.652 332.026 282.972 331.279 283.505 330.688C288.355 325.304 289.501 318.826 286.941 311.254C286.75 310.616 286.725 309.946 286.868 309.307C289.111 299.644 288.367 297.385 284.638 302.529C302.955 244.48 314.8 198.942 378.854 190.145Z" fill="#54678E"/>
<path d="M779.887 446.749L739.926 460.702C739.439 460.875 738.995 461.147 738.622 461.499C738.249 461.852 737.956 462.277 737.763 462.747C737.569 463.218 737.48 463.722 737.5 464.227C737.52 464.732 737.649 465.227 737.879 465.678C750.261 490.652 754.77 517.093 751.406 544.999L736.928 550.263C731.298 524.953 738.135 480.064 711.299 466.976C699.015 460.955 683.769 468.274 672.435 474.259C671.987 474.495 671.594 474.821 671.281 475.217C670.968 475.612 670.743 476.069 670.619 476.558C670.495 477.046 670.476 477.556 670.562 478.054C670.648 478.552 670.838 479.028 671.119 479.451C689.729 507.069 686.767 534.976 687.571 566.488L668.523 572.041C668.182 558.22 668.158 544.398 668.45 530.577C668.56 526.287 660.59 480.497 648.269 485.364C640.079 465.137 664.94 457.998 678.833 451.797C691.435 446.172 702.61 444.946 712.359 448.119C719.306 450.355 722.84 447.879 722.962 440.692C723.328 419.203 724.498 399.481 722.414 377.199C719.452 345.759 719.416 320.412 706.437 288.9C706.173 288.263 705.743 287.714 705.194 287.314C666.732 260.056 597.23 296.111 560.633 315.869L527.217 334.906C513.812 331.469 500.479 330.592 487.22 332.274C465.393 335.05 449.892 330.075 430.441 327.082C421.703 325.748 418.669 320.701 415.159 313.453C434.804 290.619 458.276 273.709 485.575 262.724C530.983 243.951 577.086 231.548 623.883 225.515C624.395 225.443 624.87 225.275 625.309 225.01C632.767 220.491 634.437 217.403 630.318 215.744C629.733 215.528 629.733 215.372 630.318 215.275C632.389 214.867 631.926 214.206 628.928 213.292C660.492 209.903 689.546 214.146 716.089 226.02C722.84 229.024 727.093 234.06 728.848 241.127L779.887 446.749Z" fill="#01153D"/>
<path d="M480.091 235.683C488.024 236.187 486.306 257.28 485.575 262.724C458.276 273.709 434.804 290.619 415.159 313.453C398.878 360.037 406.506 402.113 438.046 439.682C450.038 454.874 463.736 468.394 479.14 480.244C479.78 480.758 480.231 481.482 480.42 482.299C481.833 488.261 480.505 493.489 476.434 497.983L417.536 493.477L379.695 487.527L376.697 475.413C376.582 474.944 376.565 474.457 376.647 473.98C376.729 473.503 376.907 473.046 377.173 472.637C380.865 466.976 375.674 456.664 374.906 452.157C370.567 426.534 368.618 400.779 369.056 374.891C369.422 353.943 366.716 325.892 370.628 301.844C372.92 287.999 371.762 274.971 367.155 262.76L480.091 235.683Z" fill="#3A4F78"/>
<path d="M648.269 485.364C622.798 490.316 596.243 493.729 568.604 495.604C570.407 481.71 570.639 470.317 569.298 461.423C565.898 438.853 567.287 422.232 567.031 401.067C566.715 372.656 564.582 344.256 560.633 315.869C597.23 296.111 666.732 260.056 705.194 287.313C705.743 287.714 706.173 288.263 706.437 288.9C719.416 320.412 719.452 345.759 722.414 377.199C724.497 399.481 723.328 419.203 722.962 440.692C722.84 447.879 719.306 450.355 712.359 448.119C702.61 444.946 691.435 446.172 678.833 451.797C664.94 457.998 640.079 465.137 648.269 485.364Z" fill="#0C214B"/>
<path d="M309.024 470.185L303.686 469.139C280.799 461.784 258.912 452.217 238.023 440.439L284.638 302.529C288.367 297.385 289.111 299.644 286.868 309.307C286.725 309.946 286.75 310.616 286.941 311.254C289.501 318.826 288.355 325.304 283.505 330.688C282.973 331.279 282.652 332.026 282.593 332.814C282.533 333.603 282.738 334.388 283.176 335.05L287.27 341.18C287.636 341.709 287.831 342.285 287.855 342.91C289.537 366.166 285.516 389.818 286.941 413.434C287.526 422.917 284.675 437.086 289.391 449.417C289.631 450.078 289.681 450.789 289.537 451.472L288.55 455.763C288.342 456.679 288.509 457.64 289.014 458.441C289.519 459.242 290.323 459.821 291.256 460.053L307.232 463.911C307.755 464.041 308.242 464.281 308.661 464.614C309.08 464.947 309.419 465.366 309.656 465.84C309.893 466.314 310.021 466.832 310.032 467.359C310.043 467.885 309.936 468.407 309.719 468.887C309.524 469.32 309.292 469.752 309.024 470.185Z" fill="#7585A8"/>
<path d="M415.159 313.453C418.669 320.701 421.703 325.748 430.441 327.082C449.892 330.075 465.393 335.05 487.22 332.274C500.479 330.592 513.811 331.469 527.217 334.906C493.106 356.395 457.423 392.054 465.868 433.625C467.112 439.718 464.26 446.533 457.094 440.151C456.388 439.547 455.475 439.225 454.535 439.25L438.046 439.682C406.506 402.113 398.877 360.037 415.159 313.453Z" fill="#0C214B"/>
<path d="M560.633 315.869C564.582 344.257 566.715 372.656 567.031 401.067C567.287 422.232 565.898 438.853 569.298 461.424C570.639 470.317 570.407 481.711 568.604 495.604L549.299 497.262C524.487 498.801 500.199 499.041 476.434 497.983C480.505 493.489 481.833 488.261 480.42 482.299C480.231 481.482 479.78 480.758 479.14 480.244C463.736 468.394 450.038 454.874 438.046 439.682L454.535 439.25C455.475 439.225 456.388 439.547 457.094 440.151C464.26 446.533 467.112 439.718 465.868 433.625C457.423 392.054 493.106 356.395 527.217 334.906L560.633 315.869Z" fill="#233A63"/>
<path d="M238.023 440.439C258.912 452.217 280.799 461.784 303.686 469.139C301.444 468.899 299.372 469.139 297.471 469.86C296.941 470.059 296.465 470.386 296.083 470.812C295.702 471.238 295.425 471.753 295.277 472.312C293.571 478.706 292.937 485.22 293.376 491.854C295.277 520.313 295.362 548.797 293.632 577.304C261.971 568.098 232.978 553.724 206.655 534.183L226.763 471.988L238.023 440.439Z" fill="#FEB892"/>
<path d="M779.887 446.749L799.995 524.844C800.2 525.641 800.124 526.482 799.778 527.23C799.432 527.977 798.838 528.586 798.094 528.955C783.372 536.358 768.163 542.656 752.466 547.848L751.406 544.999C754.77 517.093 750.26 490.652 737.879 465.678C737.649 465.227 737.519 464.732 737.499 464.227C737.479 463.722 737.569 463.218 737.763 462.747C737.956 462.277 738.249 461.852 738.622 461.499C738.995 461.147 739.439 460.875 739.926 460.702L779.887 446.749Z" fill="#E0662A"/>
<path d="M779.887 446.749C824.783 451.076 1041.22 473.25 965.687 565.803C928.286 602.94 861.599 624.933 811.585 639.283C712.335 667.743 611.245 685.482 508.315 692.501C377.977 701.37 244.019 696.25 122.09 649.271C106.613 643.286 87.3819 633.971 64.3976 621.328C46.8851 606.365 31.6028 586.571 33.1018 563.532C46.7266 588.938 67.4077 606.497 95.1449 616.208C144.721 640.365 196.868 656.842 251.587 665.64C305.136 674.365 359.063 678.571 413.368 678.259C447.247 678.187 481.065 676.685 514.823 673.752C587.846 668.56 660.565 657.635 732.98 640.978C733.604 640.826 734.178 640.516 734.646 640.081C735.114 639.645 735.459 639.097 735.648 638.49C740.279 623.395 738.841 608.456 731.334 593.674C728.848 588.77 727.203 584.395 726.399 580.55C726.292 580.058 726.081 579.595 725.779 579.189C725.478 578.784 725.093 578.444 724.649 578.193C724.205 577.942 723.712 577.784 723.201 577.731C722.69 577.677 722.173 577.728 721.682 577.882C653.363 599.37 583.496 613.095 512.081 619.057C477.641 620.523 443.213 620.222 408.798 618.155C352.056 613.42 297.52 600.103 245.189 578.206C228.566 569.889 212.078 560.022 195.723 548.605C195.136 548.196 194.684 547.626 194.424 546.965C194.164 546.305 194.107 545.583 194.26 544.891C196.308 535.517 200.439 531.947 206.654 534.183C232.978 553.725 261.971 568.099 293.632 577.305C309.45 582.785 325.598 586.991 342.075 589.924C366.131 595.5 390.505 598.805 415.196 599.839C463.577 603.925 511.764 602.471 559.756 595.476C596.584 591.222 632.792 583.963 668.377 573.699C697.162 567.498 725.192 558.88 752.466 547.848C768.163 542.656 783.372 536.358 798.094 528.955C798.838 528.586 799.432 527.977 799.778 527.23C800.124 526.482 800.2 525.641 799.995 524.845L779.887 446.749Z" fill="#01153D"/>
<path d="M736.928 550.263L687.571 566.488C686.767 534.976 689.728 507.069 671.119 479.451C670.838 479.028 670.648 478.552 670.562 478.054C670.476 477.556 670.495 477.046 670.619 476.557C670.743 476.069 670.968 475.612 671.281 475.217C671.594 474.821 671.987 474.495 672.435 474.259C683.769 468.274 699.015 460.955 711.299 466.976C738.135 480.064 731.298 524.953 736.928 550.263Z" fill="#0C214B"/>
<path d="M303.686 469.14L309.024 470.185L342.257 479.848C340.064 496.553 339.954 513.079 341.928 529.424C342.123 530.89 342.477 530.974 342.989 529.676L343.281 528.955C344.11 526.912 344.463 527.549 344.341 530.866L342.075 589.924C325.598 586.992 309.45 582.785 293.632 577.305C295.362 548.797 295.277 520.314 293.376 491.854C292.937 485.22 293.571 478.706 295.277 472.312C295.425 471.753 295.702 471.239 296.083 470.812C296.465 470.386 296.941 470.06 297.471 469.861C299.372 469.14 301.444 468.899 303.686 469.14Z" fill="#FFA574"/>
<path d="M226.763 471.988L206.655 534.183C200.439 531.947 196.308 535.517 194.261 544.891C194.107 545.583 194.164 546.305 194.424 546.965C194.684 547.626 195.136 548.196 195.723 548.605C212.078 560.022 228.566 569.889 245.189 578.206C244.507 577.966 243.776 577.857 242.996 577.881C242.637 577.885 242.285 577.97 241.965 578.13C241.646 578.289 241.368 578.519 241.152 578.801C240.937 579.083 240.79 579.41 240.723 579.757C240.656 580.104 240.67 580.461 240.765 580.802C244.312 593.205 250.344 603.372 251.734 615.703C253.635 632.385 253.586 649.03 251.587 665.64C196.868 656.842 144.721 640.365 95.145 616.208C98.0454 612.17 99.0691 607.747 98.2161 602.94C94.4503 581.703 93.7557 558.88 92.0739 537.283C92.0024 536.442 91.6408 535.652 91.0502 535.048C86.1754 530.121 84.5424 524.376 86.1511 517.814C131.389 497.743 178.259 482.468 226.763 471.988Z" fill="#54678E"/>
<path d="M342.257 479.848L379.695 487.528L417.536 493.477C415.342 513.596 413.27 546.394 411.32 591.871C411.125 596.102 412.417 598.758 415.196 599.839C390.505 598.806 366.131 595.501 342.075 589.924L344.341 530.866C344.463 527.549 344.11 526.912 343.281 528.955L342.989 529.676C342.477 530.974 342.123 530.89 341.928 529.424C339.954 513.079 340.064 496.553 342.257 479.848Z" fill="#FF8C4E"/>
<path d="M668.523 572.041L668.377 573.699C632.792 583.963 596.584 591.222 559.756 595.477C560.268 562.234 556.782 529.496 549.3 497.262L568.604 495.604C596.243 493.729 622.798 490.316 648.269 485.364C660.59 480.497 668.56 526.287 668.45 530.577C668.158 544.398 668.182 558.22 668.523 572.041Z" fill="#E0662A"/>
<path d="M417.535 493.477L476.434 497.983C500.199 499.041 524.487 498.801 549.3 497.262C556.782 529.496 560.268 562.234 559.756 595.476C511.764 602.471 463.577 603.925 415.196 599.839C412.417 598.757 411.125 596.101 411.32 591.871C413.27 546.393 415.342 513.595 417.535 493.477Z" fill="#FE7B36"/>
<path d="M86.1511 517.814C84.5424 524.376 86.1754 530.121 91.0501 535.048C91.6408 535.652 92.0024 536.442 92.0739 537.284C93.7556 558.881 94.4503 581.703 98.216 602.94C99.0691 607.747 98.0454 612.17 95.1449 616.208C67.4077 606.497 46.7266 588.939 33.1017 563.532C40.231 540.601 65.1288 526.107 86.1511 517.814Z" fill="#7585A8"/>
<path d="M751.406 544.999L752.466 547.848C725.192 558.88 697.162 567.498 668.377 573.699L668.523 572.041L687.571 566.488L736.928 550.263L751.406 544.999Z" fill="#3A4F78"/>
<path d="M245.189 578.206C297.52 600.104 352.056 613.42 408.798 618.155C409.578 619.501 410.674 620.343 412.088 620.679C412.748 620.843 413.349 621.178 413.826 621.648C414.303 622.118 414.637 622.706 414.794 623.347C418.011 637.024 419.132 650.869 418.157 664.883C417.962 667.503 418.157 670.111 418.742 672.707C418.949 673.594 418.808 674.526 418.347 675.316C417.886 676.105 417.139 676.693 416.256 676.961C415.183 677.274 414.221 677.706 413.368 678.259C359.063 678.572 305.136 674.365 251.587 665.64C253.586 649.03 253.635 632.385 251.734 615.703C250.344 603.373 244.312 593.205 240.765 580.802C240.67 580.462 240.656 580.104 240.723 579.757C240.79 579.41 240.937 579.083 241.152 578.801C241.368 578.519 241.646 578.289 241.966 578.13C242.285 577.97 242.638 577.886 242.996 577.882C243.776 577.858 244.507 577.966 245.189 578.206Z" fill="#3A4F78"/>
<path d="M514.823 673.752C515.262 672.55 515.993 671.733 517.017 671.3C517.604 671.054 518.094 670.624 518.411 670.077C518.728 669.53 518.854 668.896 518.772 668.272L512.081 619.056C583.496 613.095 653.363 599.37 721.682 577.882C722.173 577.728 722.69 577.677 723.201 577.731C723.712 577.784 724.205 577.942 724.649 578.193C725.093 578.444 725.478 578.783 725.779 579.189C726.081 579.595 726.292 580.058 726.399 580.55C727.203 584.395 728.848 588.77 731.334 593.674C738.841 608.456 740.279 623.395 735.648 638.49C735.459 639.097 735.114 639.645 734.646 640.081C734.178 640.516 733.604 640.826 732.98 640.978C660.565 657.635 587.846 668.56 514.823 673.752Z" fill="#0C214B"/>
<path d="M408.798 618.155C443.213 620.222 477.641 620.523 512.081 619.056L518.772 668.272C518.854 668.896 518.728 669.53 518.411 670.077C518.094 670.624 517.604 671.054 517.017 671.3C515.993 671.733 515.262 672.55 514.823 673.752C481.065 676.684 447.247 678.187 413.368 678.259C414.221 677.706 415.183 677.273 416.256 676.961C417.139 676.693 417.886 676.105 418.347 675.315C418.808 674.526 418.949 673.594 418.742 672.706C418.157 670.11 417.962 667.502 418.157 664.882C419.132 650.869 418.011 637.024 414.793 623.347C414.637 622.706 414.303 622.118 413.826 621.648C413.349 621.178 412.748 620.842 412.088 620.679C410.674 620.342 409.578 619.501 408.798 618.155Z" fill="#233A63"/>
<path fill-rule="evenodd" clip-rule="evenodd" d="M990.877 613.504C987.684 595.164 979.288 579.264 965.687 565.803C928.286 602.94 861.6 624.934 811.585 639.284C712.335 667.743 611.245 685.482 508.315 692.501C377.977 701.37 244.019 696.251 122.09 649.271C106.613 643.286 87.382 633.971 64.3976 621.328C87.2845 663.609 121.237 698.39 166.255 725.672C280.982 795.222 409.054 830.808 536.759 836H612.403L612.49 836C613.548 835.998 613.519 835.962 612.403 835.892C710.535 832.971 739.487 830.916 829.243 796.34C829.243 796.34 829.243 796.339 829.243 796.339L826.867 796.484L829.243 796.34L829.243 796.34C862.197 784.489 892.713 767.88 920.791 746.511L926.275 742.401C956.913 719.638 977.183 687.54 988.395 651.412C991.856 638.024 993.12 627.157 990.877 613.504Z" fill="#C4CBD9"/>
</svg>
