<?xml version="1.0" encoding="utf-8"?>
<svg viewBox="83.781 91.514 300.438 300.438" xmlns="http://www.w3.org/2000/svg">
  <g stroke-width="2.00" fill="none" stroke-linecap="butt">
    <path stroke="#122850" vector-effect="non-scaling-stroke" d=" M 231.29 164.25 Q 229.82 165.57 227.75 165.71"/>
    <path stroke="#1e325b" vector-effect="non-scaling-stroke" d=" M 227.75 165.71 L 196.86 173.22"/>
    <path stroke="#2b3e66" vector-effect="non-scaling-stroke" d=" M 196.86 173.22 Q 182.57 179.07 183.45 167.92 Q 183.69 164.91 185.68 162.41 Q 191.18 155.48 200.06 153.08"/>
    <path stroke="#2f456e" vector-effect="non-scaling-stroke" d=" M 229.25 173.21 C 229.45 171.70 229.92 165.85 227.75 165.71"/>
    <path stroke="#475b83" vector-effect="non-scaling-stroke" d=" M 196.86 173.22 Q 198.75 178.30 197.81 184.06 C 196.74 190.73 197.48 198.51 197.38 204.32 Q 197.20 215.09 198.98 225.75 C 199.19 227.00 200.61 229.86 199.60 231.43 A 1.00 0.99 -35.9 0 0 199.47 232.20 L 200.29 235.56"/>
    <path stroke="#aa7a6e" vector-effect="non-scaling-stroke" d=" M 200.29 235.56 L 190.05 233.43"/>
    <path stroke="#aa8681" vector-effect="non-scaling-stroke" d=" M 190.05 233.43 L 180.96 230.75"/>
    <path stroke="#65769b" vector-effect="non-scaling-stroke" d=" M 180.96 230.75 Q 181.07 230.57 181.15 230.39 A 1.01 1.00 18.9 0 0 180.47 229.01 L 176.10 227.94 A 1.01 1.00 13.3 0 1 175.36 226.75 L 175.63 225.56 A 1.06 1.05 41.2 0 0 175.59 224.99 C 174.30 221.57 175.08 217.64 174.92 215.01 C 174.53 208.46 175.63 201.90 175.17 195.45 Q 175.16 195.19 175.01 194.97 L 173.89 193.27 A 1.00 1.00 0.0 0 1 173.98 192.06 Q 175.97 189.82 174.92 186.67 A 1.10 1.06 43.9 0 1 174.90 186.13 Q 175.82 182.11 174.29 184.25"/>
    <path stroke="#233862" vector-effect="non-scaling-stroke" d=" M 209.99 187.28 Q 203.31 206.66 216.25 222.29"/>
    <path stroke="#2f456e" vector-effect="non-scaling-stroke" d=" M 216.25 222.29 Q 221.17 228.61 227.49 233.54 A 1.05 1.00 -78.0 0 1 227.84 234.11 Q 228.42 236.59 226.75 238.46"/>
    <path stroke="#9c6557" vector-effect="non-scaling-stroke" d=" M 226.75 238.46 L 210.64 237.21"/>
    <path stroke="#9d6e63" vector-effect="non-scaling-stroke" d=" M 210.64 237.21 L 200.29 235.56"/>
    <path stroke="#713e34" vector-effect="non-scaling-stroke" d=" M 309.75 224.25 L 298.82 228.12 A 1.00 0.99 -23.1 0 0 298.26 229.50 Q 303.34 239.89 301.96 251.50"/>
    <path stroke="#1e325b" vector-effect="non-scaling-stroke" d=" M 301.96 251.50 L 298.00 252.96"/>
    <path stroke="#071b44" vector-effect="non-scaling-stroke" d=" M 298.00 252.96 C 296.46 245.94 298.33 233.49 290.99 229.86 C 287.63 228.19 283.46 230.22 280.36 231.88 A 1.01 1.00 59.1 0 0 280.00 233.32 C 285.09 240.98 284.28 248.72 284.50 257.46"/>
    <path stroke="#1e325b" vector-effect="non-scaling-stroke" d=" M 284.50 257.46 L 279.29 259.00"/>
    <path stroke="#713e34" vector-effect="non-scaling-stroke" d=" M 279.29 259.00 Q 279.15 253.25 279.27 247.50 C 279.30 246.31 277.12 233.61 273.75 234.96"/>
    <path stroke="#071b44" vector-effect="non-scaling-stroke" d=" M 273.75 234.96 C 271.51 229.35 278.31 227.37 282.11 225.65 Q 287.28 223.31 291.28 224.63 Q 294.13 225.56 294.18 222.57 C 294.28 216.61 294.60 211.14 294.03 204.96 C 293.22 196.24 293.21 189.21 289.66 180.47 A 1.05 1.01 -83.7 0 0 289.32 180.03 C 278.80 172.47 259.79 182.47 249.78 187.95"/>
    <path stroke="#122850" vector-effect="non-scaling-stroke" d=" M 249.78 187.95 L 240.64 193.23"/>
    <path stroke="#071b44" vector-effect="non-scaling-stroke" d=" M 240.64 193.23 Q 235.14 191.80 229.70 192.50 C 223.73 193.27 219.49 191.89 214.17 191.06 C 211.78 190.69 210.95 189.29 209.99 187.28"/>
    <path stroke="#1e325b" vector-effect="non-scaling-stroke" d=" M 209.99 187.28 Q 218.05 177.78 229.25 173.21"/>
    <path stroke="#122850" vector-effect="non-scaling-stroke" d=" M 229.25 173.21 Q 247.88 165.40 267.08 162.89 Q 267.29 162.86 267.47 162.75 Q 270.53 160.87 268.84 160.18 Q 268.60 160.09 268.84 160.05 Q 269.69 159.88 268.46 159.50"/>
    <path stroke="#ff8442" vector-effect="non-scaling-stroke" d=" M 210.64 237.21 Q 209.74 245.58 208.94 264.50 Q 208.86 266.26 210.00 266.71"/>
    <path stroke="#ff9961" vector-effect="non-scaling-stroke" d=" M 190.05 233.43 Q 189.15 240.38 189.96 247.18 Q 190.04 247.79 190.25 247.25 L 190.33 247.05 Q 190.67 246.20 190.62 247.58 L 190.00 263.96"/>
    <path stroke="#ba958e" vector-effect="non-scaling-stroke" d=" M 180.96 230.75 L 179.50 230.46"/>
    <path stroke="#ba9f9d" vector-effect="non-scaling-stroke" d=" M 179.50 230.46 Q 170.11 227.40 161.54 222.50"/>
    <path stroke="#825047" vector-effect="non-scaling-stroke" d=" M 251.96 237.80 L 246.68 238.26"/>
    <path stroke="#915b4d" vector-effect="non-scaling-stroke" d=" M 246.68 238.26 Q 236.50 238.90 226.75 238.46"/>
    <path stroke="#182e57" vector-effect="non-scaling-stroke" d=" M 240.64 193.23 C 231.31 199.19 221.55 209.08 223.86 220.61 C 224.20 222.30 223.42 224.19 221.46 222.42 A 1.03 1.02 -25.0 0 0 220.76 222.17 L 216.25 222.29"/>
    <path stroke="#76443b" vector-effect="non-scaling-stroke" d=" M 273.75 234.96 Q 263.30 237.02 251.96 237.80"/>
    <path stroke="#182e57" vector-effect="non-scaling-stroke" d=" M 251.96 237.80 Q 252.70 232.02 252.15 228.32 C 251.22 222.06 251.60 217.45 251.53 211.58 Q 251.40 199.76 249.78 187.95"/>
    <path stroke="#63708b" vector-effect="non-scaling-stroke" d=" M 360.57 257.27 C 350.34 267.57 332.10 273.67 318.42 277.65 Q 277.70 289.49 235.47 292.41 C 199.82 294.87 163.18 293.45 129.83 280.42 Q 123.48 277.93 114.05 272.67"/>
    <path stroke="#3b4d73" vector-effect="non-scaling-stroke" d=" M 105.49 256.64 Q 111.08 267.21 122.46 271.25"/>
    <path stroke="#2b3e66" vector-effect="non-scaling-stroke" d=" M 122.46 271.25 Q 142.80 281.30 165.25 284.96"/>
    <path stroke="#1e325b" vector-effect="non-scaling-stroke" d=" M 165.25 284.96 Q 187.22 288.59 209.50 288.46"/>
    <path stroke="#122850" vector-effect="non-scaling-stroke" d=" M 209.50 288.46 Q 223.40 288.43 237.25 287.21"/>
    <path stroke="#071b44" vector-effect="non-scaling-stroke" d=" M 237.25 287.21 Q 267.21 285.05 296.92 278.12 A 1.02 1.02 0.0 0 0 297.65 277.43 Q 299.55 271.15 296.47 265.00 Q 295.45 262.96 295.12 261.36 A 1.01 1.00 -14.9 0 0 293.83 260.62 Q 265.80 269.56 236.50 272.04"/>
    <path stroke="#122850" vector-effect="non-scaling-stroke" d=" M 236.50 272.04 Q 222.37 272.65 208.25 271.79"/>
    <path stroke="#1e325b" vector-effect="non-scaling-stroke" d=" M 208.25 271.79 Q 184.97 269.82 163.50 260.71"/>
    <path stroke="#2b3e66" vector-effect="non-scaling-stroke" d=" M 163.50 260.71 Q 156.68 257.25 149.97 252.50 A 1.00 1.00 0.0 0 1 149.57 251.47 Q 150.41 247.57 152.96 248.50"/>
    <path stroke="#805d59" vector-effect="non-scaling-stroke" d=" M 176.75 260.46 Q 183.24 262.74 190.00 263.96"/>
    <path stroke="#805146" vector-effect="non-scaling-stroke" d=" M 190.00 263.96 Q 199.87 266.28 210.00 266.71"/>
    <path stroke="#80483a" vector-effect="non-scaling-stroke" d=" M 210.00 266.71 Q 229.85 268.41 249.54 265.50"/>
    <path stroke="#713e34" vector-effect="non-scaling-stroke" d=" M 249.54 265.50 Q 264.65 263.73 279.25 259.46"/>
    <path stroke="#1e325b" vector-effect="non-scaling-stroke" d=" M 279.25 259.46 Q 291.06 256.88 302.25 252.29"/>
    <path stroke="#233862" vector-effect="non-scaling-stroke" d=" M 298.00 252.96 L 284.50 257.46"/>
    <path stroke="#713e34" vector-effect="non-scaling-stroke" d=" M 309.75 224.25 L 315.25 245.91 A 1.00 1.00 0.0 0 1 314.73 247.05 Q 308.69 250.13 302.25 252.29"/>
    <path stroke="#8d5b51" vector-effect="non-scaling-stroke" d=" M 302.25 252.29 L 301.96 251.50"/>
    <path stroke="#8d5b51" vector-effect="non-scaling-stroke" d=" M 279.29 259.00 L 279.25 259.46"/>
    <path stroke="#ef7130" vector-effect="non-scaling-stroke" d=" M 249.54 265.50 Q 249.75 251.67 246.68 238.26"/>
    <path stroke="#ffaf83" vector-effect="non-scaling-stroke" d=" M 179.50 230.46 Q 178.58 230.36 177.80 230.66 A 1.01 0.97 87.3 0 0 177.20 231.34 Q 176.50 234.00 176.68 236.76 Q 177.46 248.60 176.75 260.46"/>
    <path stroke="#806768" vector-effect="non-scaling-stroke" d=" M 176.75 260.46 Q 163.76 256.63 152.96 248.50"/>
    <path stroke="#a99090" vector-effect="non-scaling-stroke" d=" M 152.96 248.50 L 158.46 231.25"/>
    <path stroke="#c4cad5" stroke-opacity="0.957" vector-effect="non-scaling-stroke" d=" M 367.46 270.50 Q 366.14 270.57 366.29 268.85 A 0.51 0.51 0.0 0 0 365.63 268.32 Q 365.04 268.50 365.19 269.01 Q 365.44 269.89 364.76 269.27 Q 362.50 267.21 360.73 264.16 Q 359.82 262.58 360.36 260.89 A 0.80 0.80 0.0 0 0 360.03 259.97 Q 359.26 259.48 358.26 260.29 C 353.96 263.84 346.98 268.73 341.63 269.66 A 0.15 0.08 -6.8 0 0 341.50 269.75 L 341.50 270.02 A 0.27 0.26 77.8 0 1 341.35 270.26 Q 333.61 273.96 325.38 276.33 Q 325.29 276.35 321.64 277.73 Q 319.73 278.44 317.60 278.48 A 1.01 0.98 14.5 0 0 316.76 278.96 Q 316.43 279.52 315.76 279.53 Q 314.80 279.54 314.06 279.85 Q 313.31 280.17 314.02 280.58 Q 314.57 280.90 313.67 281.19 A 1.01 0.97 51.9 0 1 312.83 281.07 Q 311.37 280.13 310.51 281.30 A 1.05 1.01 6.3 0 1 310.07 281.64 L 305.85 283.32 A 1.08 1.08 0.0 0 0 305.34 283.77 Q 304.46 285.36 303.07 285.57 Q 299.25 286.13 296.94 288.51 A 1.03 0.98 -66.5 0 1 296.23 288.81 L 282.12 288.92 A 0.96 0.96 0.0 0 0 281.62 289.06 Q 279.95 290.05 278.24 289.71 A 0.51 0.51 0.0 0 0 277.64 290.32 C 277.94 291.73 274.65 291.27 273.92 291.24 A 0.99 0.99 0.0 0 0 273.08 291.65 Q 272.23 292.80 270.81 293.17 A 0.99 0.97 -79.3 0 0 270.25 293.56 L 267.84 296.91 A 0.99 0.98 -66.7 0 1 266.85 297.31 Q 262.81 296.54 260.60 299.82 A 1.02 1.00 -72.0 0 1 259.75 300.26 Q 256.50 300.19 254.52 302.67 A 1.02 1.01 -65.6 0 1 253.58 303.03 Q 250.07 302.48 247.39 304.81 A 1.02 1.00 28.8 0 1 246.58 305.04 Q 242.33 304.38 239.59 307.60 A 1.02 1.01 -79.0 0 1 239.15 307.90 Q 235.71 309.08 232.97 311.38 A 0.96 0.94 -67.9 0 1 232.44 311.61 Q 229.84 311.89 228.11 313.60 Q 228.02 313.69 227.13 314.11 Q 225.57 314.84 225.47 316.72 A 1.03 1.00 71.6 0 1 225.14 317.40 Q 223.68 318.73 225.40 319.61 A 1.04 1.03 87.5 0 1 225.80 319.98 Q 228.28 323.98 232.70 322.56 A 1.00 1.00 0.0 0 1 233.82 322.94 L 234.62 324.07 A 1.01 1.01 0.0 0 0 235.38 324.49 Q 237.80 324.62 238.58 326.87 A 1.01 1.00 -7.8 0 0 239.47 327.54 L 243.92 327.79 A 0.80 0.80 0.0 0 1 244.66 328.73 L 244.61 329.00 A 0.52 0.51 -82.7 0 0 245.07 329.60 L 246.78 329.76 A 1.01 0.98 69.3 0 1 247.40 330.05 Q 248.59 331.26 250.07 330.61 A 0.98 0.96 40.9 0 1 250.73 330.57 Q 253.75 331.38 258.47 330.67 Q 259.76 330.47 258.81 331.37 Q 258.05 332.09 255.55 331.93 Q 254.90 331.89 255.55 331.89 Q 259.75 331.94 263.94 332.18 Q 264.41 332.21 263.94 332.21 L 243.25 332.21"/>
    <path stroke="#2f456e" vector-effect="non-scaling-stroke" d=" M 208.25 271.79 Q 208.57 272.35 209.15 272.49 A 1.02 1.00 0.6 0 1 209.89 273.23 Q 211.21 278.92 210.81 284.75 Q 210.73 285.84 210.97 286.92 A 1.00 1.00 0.0 0 1 210.29 288.10 Q 209.85 288.23 209.50 288.46"/>
    <path stroke="#475b83" vector-effect="non-scaling-stroke" d=" M 163.50 260.71 Q 163.22 260.61 162.90 260.62 A 0.64 0.64 0.0 0 0 162.29 261.43 C 163.26 264.87 164.91 267.69 165.29 271.11 Q 166.07 278.05 165.25 284.96"/>
    <path stroke="#65769b" vector-effect="non-scaling-stroke" d=" M 122.46 271.25 Q 123.65 269.57 123.30 267.57 C 122.27 261.68 122.08 255.35 121.62 249.36 A 1.02 1.01 -69.4 0 0 121.34 248.74 Q 119.34 246.69 120.00 243.96"/>
    <path stroke="#182e57" vector-effect="non-scaling-stroke" d=" M 237.25 287.21 Q 237.43 286.71 237.85 286.53 A 0.80 0.80 0.0 0 0 238.33 285.69 L 236.50 272.04"/>
    <path stroke="#c4cad5" stroke-opacity="0.957" vector-effect="non-scaling-stroke" d=" M 366.96 281.75 Q 366.11 282.63 364.82 282.75 A 0.80 0.78 -81.5 0 0 364.15 283.26 Q 363.92 283.85 363.35 283.67 A 0.80 0.80 0.0 0 0 362.37 284.13 L 361.79 285.54 Q 361.76 285.62 361.72 285.69 L 358.31 291.17 A 1.00 0.99 -42.4 0 0 358.26 292.13 L 359.31 294.29 A 1.00 0.99 61.3 0 1 358.94 295.58 L 357.47 296.48 A 1.01 1.00 -50.8 0 1 356.61 296.57 Q 355.92 296.31 355.93 297.09 A 1.02 1.01 75.5 0 1 355.41 297.98 Q 354.43 298.52 353.88 299.41 Q 353.73 299.64 353.74 299.50 L 353.76 299.18 Q 353.79 298.35 353.20 298.92 L 352.00 300.08 A 1.01 1.00 51.7 0 0 351.86 301.35 Q 352.16 301.80 351.77 301.64 A 0.52 0.51 -69.0 0 0 351.08 301.95 Q 350.67 303.19 349.77 304.09 A 1.01 1.00 61.3 0 0 349.50 305.02 L 349.79 306.25"/>
    <path stroke="#c4cad5" stroke-opacity="0.957" vector-effect="non-scaling-stroke" d=" M 348.29 307.39 Q 346.88 306.20 345.25 306.73 Q 344.60 306.94 344.33 307.82 A 0.99 0.98 1.0 0 1 343.63 308.49 Q 342.26 308.85 341.53 310.14 A 0.99 0.97 -80.7 0 1 340.88 310.62 Q 338.96 311.06 337.59 312.53 A 0.98 0.96 70.9 0 0 337.33 313.08 Q 337.15 314.49 335.71 314.10 A 1.02 0.98 35.3 0 0 334.90 314.22 C 333.30 315.26 331.49 315.58 329.88 316.56 Q 327.19 318.19 324.02 318.77 A 1.02 1.00 -85.9 0 0 323.25 319.45 Q 322.99 320.27 322.41 320.79 Q 321.86 321.29 322.60 321.25 L 323.25 321.21"/>
  </g>
  <path fill="#01153d" d=" M 231.29 164.25 Q 229.82 165.57 227.75 165.71 L 196.86 173.22 Q 182.57 179.07 183.45 167.92 Q 183.69 164.91 185.68 162.41 Q 191.18 155.48 200.06 153.08 C 211.12 151.31 222.54 157.20 231.29 164.25 Z"/>
  <path fill="#54678e" d=" M 200.06 153.08 Q 191.18 155.48 185.68 162.41 Q 183.69 164.91 183.45 167.92 Q 182.57 179.07 196.86 173.22 Q 198.75 178.30 197.81 184.06 C 196.74 190.73 197.48 198.51 197.38 204.32 Q 197.20 215.09 198.98 225.75 C 199.19 227.00 200.61 229.86 199.60 231.43 A 1.00 0.99 -35.9 0 0 199.47 232.20 L 200.29 235.56 L 190.05 233.43 L 180.96 230.75 Q 181.07 230.57 181.15 230.39 A 1.01 1.00 18.9 0 0 180.47 229.01 L 176.10 227.94 A 1.01 1.00 13.3 0 1 175.36 226.75 L 175.63 225.56 A 1.06 1.05 41.2 0 0 175.59 224.99 C 174.30 221.57 175.08 217.64 174.92 215.01 C 174.53 208.46 175.63 201.90 175.17 195.45 Q 175.16 195.19 175.01 194.97 L 173.89 193.27 A 1.00 1.00 0.0 0 1 173.98 192.06 Q 175.97 189.82 174.92 186.67 A 1.10 1.06 43.9 0 1 174.90 186.13 Q 175.82 182.11 174.29 184.25 C 179.30 168.15 182.54 155.52 200.06 153.08 Z"/>
  <path fill="#01153d" d=" M 309.75 224.25 L 298.82 228.12 A 1.00 0.99 -23.1 0 0 298.26 229.50 Q 303.34 239.89 301.96 251.50 L 298.00 252.96 C 296.46 245.94 298.33 233.49 290.99 229.86 C 287.63 228.19 283.46 230.22 280.36 231.88 A 1.01 1.00 59.1 0 0 280.00 233.32 C 285.09 240.98 284.28 248.72 284.50 257.46 L 279.29 259.00 Q 279.15 253.25 279.27 247.50 C 279.30 246.31 277.12 233.61 273.75 234.96 C 271.51 229.35 278.31 227.37 282.11 225.65 Q 287.28 223.31 291.28 224.63 Q 294.13 225.56 294.18 222.57 C 294.28 216.61 294.60 211.14 294.03 204.96 C 293.22 196.24 293.21 189.21 289.66 180.47 A 1.05 1.01 -83.7 0 0 289.32 180.03 C 278.80 172.47 259.79 182.47 249.78 187.95 L 240.64 193.23 Q 235.14 191.80 229.70 192.50 C 223.73 193.27 219.49 191.89 214.17 191.06 C 211.78 190.69 210.95 189.29 209.99 187.28 Q 218.05 177.78 229.25 173.21 Q 247.88 165.40 267.08 162.89 Q 267.29 162.86 267.47 162.75 Q 270.53 160.87 268.84 160.18 Q 268.60 160.09 268.84 160.05 Q 269.69 159.88 268.46 159.50 Q 281.41 158.09 292.30 163.03 Q 295.07 164.28 295.79 167.22 L 309.75 224.25 Z"/>
  <path fill="#233a63" d=" M 268.46 159.50 Q 269.69 159.88 268.84 160.05 Q 268.60 160.09 268.84 160.18 Q 270.53 160.87 267.47 162.75 Q 267.29 162.86 267.08 162.89 Q 247.88 165.40 229.25 173.21 C 229.45 171.70 229.92 165.85 227.75 165.71 Q 229.82 165.57 231.29 164.25 Q 232.28 164.98 233.25 164.75 Q 250.63 160.62 268.46 159.50 Z"/>
  <path fill="#3a4f78" d=" M 227.75 165.71 C 229.92 165.85 229.45 171.70 229.25 173.21 Q 218.05 177.78 209.99 187.28 Q 203.31 206.66 216.25 222.29 Q 221.17 228.61 227.49 233.54 A 1.05 1.00 -78.0 0 1 227.84 234.11 Q 228.42 236.59 226.75 238.46 L 210.64 237.21 L 200.29 235.56 L 199.47 232.20 A 1.00 0.99 -35.9 0 1 199.60 231.43 C 200.61 229.86 199.19 227.00 198.98 225.75 Q 197.20 215.09 197.38 204.32 C 197.48 198.51 196.74 190.73 197.81 184.06 Q 198.75 178.30 196.86 173.22 L 227.75 165.71 Z"/>
  <path fill="#0c214b" d=" M 273.75 234.96 Q 263.30 237.02 251.96 237.80 Q 252.70 232.02 252.15 228.32 C 251.22 222.06 251.60 217.45 251.53 211.58 Q 251.40 199.76 249.78 187.95 C 259.79 182.47 278.80 172.47 289.32 180.03 A 1.05 1.01 -83.7 0 1 289.66 180.47 C 293.21 189.21 293.22 196.24 294.03 204.96 C 294.60 211.14 294.28 216.61 294.18 222.57 Q 294.13 225.56 291.28 224.63 Q 287.28 223.31 282.11 225.65 C 278.31 227.37 271.51 229.35 273.75 234.96 Z"/>
  <path fill="#7585a8" d=" M 180.96 230.75 L 179.50 230.46 Q 170.11 227.40 161.54 222.50 L 174.29 184.25 Q 175.82 182.11 174.90 186.13 A 1.10 1.06 43.9 0 0 174.92 186.67 Q 175.97 189.82 173.98 192.06 A 1.00 1.00 0.0 0 0 173.89 193.27 L 175.01 194.97 Q 175.16 195.19 175.17 195.45 C 175.63 201.90 174.53 208.46 174.92 215.01 C 175.08 217.64 174.30 221.57 175.59 224.99 A 1.06 1.05 41.2 0 1 175.63 225.56 L 175.36 226.75 A 1.01 1.00 13.3 0 0 176.10 227.94 L 180.47 229.01 A 1.01 1.00 18.9 0 1 181.15 230.39 Q 181.07 230.57 180.96 230.75 Z"/>
  <path fill="#0c214b" d=" M 209.99 187.28 C 210.95 189.29 211.78 190.69 214.17 191.06 C 219.49 191.89 223.73 193.27 229.70 192.50 Q 235.14 191.80 240.64 193.23 C 231.31 199.19 221.55 209.08 223.86 220.61 C 224.20 222.30 223.42 224.19 221.46 222.42 A 1.03 1.02 -25.0 0 0 220.76 222.17 L 216.25 222.29 Q 203.31 206.66 209.99 187.28 Z"/>
  <path fill="#233a63" d=" M 249.78 187.95 Q 251.40 199.76 251.53 211.58 C 251.60 217.45 251.22 222.06 252.15 228.32 Q 252.70 232.02 251.96 237.80 L 246.68 238.26 Q 236.50 238.90 226.75 238.46 Q 228.42 236.59 227.84 234.11 A 1.05 1.00 -78.0 0 0 227.49 233.54 Q 221.17 228.61 216.25 222.29 L 220.76 222.17 A 1.03 1.02 -25.0 0 1 221.46 222.42 C 223.42 224.19 224.20 222.30 223.86 220.61 C 221.55 209.08 231.31 199.19 240.64 193.23 L 249.78 187.95 Z"/>
  <path fill="#feb892" d=" M 161.54 222.50 Q 170.11 227.40 179.50 230.46 Q 178.58 230.36 177.80 230.66 A 1.01 0.97 87.3 0 0 177.20 231.34 Q 176.50 234.00 176.68 236.76 Q 177.46 248.60 176.75 260.46 Q 163.76 256.63 152.96 248.50 L 158.46 231.25 L 161.54 222.50 Z"/>
  <path fill="#e0662a" d=" M 309.75 224.25 L 315.25 245.91 A 1.00 1.00 0.0 0 1 314.73 247.05 Q 308.69 250.13 302.25 252.29 L 301.96 251.50 Q 303.34 239.89 298.26 229.50 A 1.00 0.99 -23.1 0 1 298.82 228.12 L 309.75 224.25 Z"/>
  <path fill="#01153d" d=" M 309.75 224.25 C 322.03 225.45 381.23 231.60 360.57 257.27 C 350.34 267.57 332.10 273.67 318.42 277.65 Q 277.70 289.49 235.47 292.41 C 199.82 294.87 163.18 293.45 129.83 280.42 Q 123.48 277.93 114.05 272.67 C 109.26 268.52 105.08 263.03 105.49 256.64 Q 111.08 267.21 122.46 271.25 Q 142.80 281.30 165.25 284.96 Q 187.22 288.59 209.50 288.46 Q 223.40 288.43 237.25 287.21 Q 267.21 285.05 296.92 278.12 A 1.02 1.02 0.0 0 0 297.65 277.43 Q 299.55 271.15 296.47 265.00 Q 295.45 262.96 295.12 261.36 A 1.01 1.00 -14.9 0 0 293.83 260.62 Q 265.80 269.56 236.50 272.04 Q 222.37 272.65 208.25 271.79 Q 184.97 269.82 163.50 260.71 Q 156.68 257.25 149.97 252.50 A 1.00 1.00 0.0 0 1 149.57 251.47 Q 150.41 247.57 152.96 248.50 Q 163.76 256.63 176.75 260.46 Q 183.24 262.74 190.00 263.96 Q 199.87 266.28 210.00 266.71 Q 229.85 268.41 249.54 265.50 Q 264.65 263.73 279.25 259.46 Q 291.06 256.88 302.25 252.29 Q 308.69 250.13 314.73 247.05 A 1.00 1.00 0.0 0 0 315.25 245.91 L 309.75 224.25 Z"/>
  <path fill="#0c214b" d=" M 298.00 252.96 L 284.50 257.46 C 284.28 248.72 285.09 240.98 280.00 233.32 A 1.01 1.00 59.1 0 1 280.36 231.88 C 283.46 230.22 287.63 228.19 290.99 229.86 C 298.33 233.49 296.46 245.94 298.00 252.96 Z"/>
  <path fill="#ffa574" d=" M 179.50 230.46 L 180.96 230.75 L 190.05 233.43 Q 189.15 240.38 189.96 247.18 Q 190.04 247.79 190.25 247.25 L 190.33 247.05 Q 190.67 246.20 190.62 247.58 L 190.00 263.96 Q 183.24 262.74 176.75 260.46 Q 177.46 248.60 176.68 236.76 Q 176.50 234.00 177.20 231.34 A 1.01 0.97 87.3 0 1 177.80 230.66 Q 178.58 230.36 179.50 230.46 Z"/>
  <path fill="#54678e" d=" M 158.46 231.25 L 152.96 248.50 Q 150.41 247.57 149.57 251.47 A 1.00 1.00 0.0 0 0 149.97 252.50 Q 156.68 257.25 163.50 260.71 Q 163.22 260.61 162.90 260.62 A 0.64 0.64 0.0 0 0 162.29 261.43 C 163.26 264.87 164.91 267.69 165.29 271.11 Q 166.07 278.05 165.25 284.96 Q 142.80 281.30 122.46 271.25 Q 123.65 269.57 123.30 267.57 C 122.27 261.68 122.08 255.35 121.62 249.36 A 1.02 1.01 -69.4 0 0 121.34 248.74 Q 119.34 246.69 120.00 243.96 Q 138.56 235.61 158.46 231.25 Z"/>
  <path fill="#ff8c4e" d=" M 190.05 233.43 L 200.29 235.56 L 210.64 237.21 Q 209.74 245.58 208.94 264.50 Q 208.86 266.26 210.00 266.71 Q 199.87 266.28 190.00 263.96 L 190.62 247.58 Q 190.67 246.20 190.33 247.05 L 190.25 247.25 Q 190.04 247.79 189.96 247.18 Q 189.15 240.38 190.05 233.43 Z"/>
  <path fill="#e0662a" d=" M 279.29 259.00 L 279.25 259.46 Q 264.65 263.73 249.54 265.50 Q 249.75 251.67 246.68 238.26 L 251.96 237.80 Q 263.30 237.02 273.75 234.96 C 277.12 233.61 279.30 246.31 279.27 247.50 Q 279.15 253.25 279.29 259.00 Z"/>
  <path fill="#fe7b36" d=" M 210.64 237.21 L 226.75 238.46 Q 236.50 238.90 246.68 238.26 Q 249.75 251.67 249.54 265.50 Q 229.85 268.41 210.00 266.71 Q 208.86 266.26 208.94 264.50 Q 209.74 245.58 210.64 237.21 Z"/>
  <path fill="#7585a8" d=" M 120.00 243.96 Q 119.34 246.69 121.34 248.74 A 1.02 1.01 -69.4 0 1 121.62 249.36 C 122.08 255.35 122.27 261.68 123.30 267.57 Q 123.65 269.57 122.46 271.25 Q 111.08 267.21 105.49 256.64 C 107.44 250.28 114.25 246.26 120.00 243.96 Z"/>
  <path fill="#3a4f78" d=" M 301.96 251.50 L 302.25 252.29 Q 291.06 256.88 279.25 259.46 L 279.29 259.00 L 284.50 257.46 L 298.00 252.96 L 301.96 251.50 Z"/>
  <path fill="#c4cbd9" d=" M 360.57 257.27 Q 366.15 262.87 367.46 270.50 Q 366.14 270.57 366.29 268.85 A 0.51 0.51 0.0 0 0 365.63 268.32 Q 365.04 268.50 365.19 269.01 Q 365.44 269.89 364.76 269.27 Q 362.50 267.21 360.73 264.16 Q 359.82 262.58 360.36 260.89 A 0.80 0.80 0.0 0 0 360.03 259.97 Q 359.26 259.48 358.26 260.29 C 353.96 263.84 346.98 268.73 341.63 269.66 A 0.15 0.08 -6.8 0 0 341.50 269.75 L 341.50 270.02 A 0.27 0.26 77.8 0 1 341.35 270.26 Q 333.61 273.96 325.38 276.33 Q 325.29 276.35 321.64 277.73 Q 319.73 278.44 317.60 278.48 A 1.01 0.98 14.5 0 0 316.76 278.96 Q 316.43 279.52 315.76 279.53 Q 314.80 279.54 314.06 279.85 Q 313.31 280.17 314.02 280.58 Q 314.57 280.90 313.67 281.19 A 1.01 0.97 51.9 0 1 312.83 281.07 Q 311.37 280.13 310.51 281.30 A 1.05 1.01 6.3 0 1 310.07 281.64 L 305.85 283.32 A 1.08 1.08 0.0 0 0 305.34 283.77 Q 304.46 285.36 303.07 285.57 Q 299.25 286.13 296.94 288.51 A 1.03 0.98 -66.5 0 1 296.23 288.81 L 282.12 288.92 A 0.96 0.96 0.0 0 0 281.62 289.06 Q 279.95 290.05 278.24 289.71 A 0.51 0.51 0.0 0 0 277.64 290.32 C 277.94 291.73 274.65 291.27 273.92 291.24 A 0.99 0.99 0.0 0 0 273.08 291.65 Q 272.23 292.80 270.81 293.17 A 0.99 0.97 -79.3 0 0 270.25 293.56 L 267.84 296.91 A 0.99 0.98 -66.7 0 1 266.85 297.31 Q 262.81 296.54 260.60 299.82 A 1.02 1.00 -72.0 0 1 259.75 300.26 Q 256.50 300.19 254.52 302.67 A 1.02 1.01 -65.6 0 1 253.58 303.03 Q 250.07 302.48 247.39 304.81 A 1.02 1.00 28.8 0 1 246.58 305.04 Q 242.33 304.38 239.59 307.60 A 1.02 1.01 -79.0 0 1 239.15 307.90 Q 235.71 309.08 232.97 311.38 A 0.96 0.94 -67.9 0 1 232.44 311.61 Q 229.84 311.89 228.11 313.60 Q 228.02 313.69 227.13 314.11 Q 225.57 314.84 225.47 316.72 A 1.03 1.00 71.6 0 1 225.14 317.40 Q 223.68 318.73 225.40 319.61 A 1.04 1.03 87.5 0 1 225.80 319.98 Q 228.28 323.98 232.70 322.56 A 1.00 1.00 0.0 0 1 233.82 322.94 L 234.62 324.07 A 1.01 1.01 0.0 0 0 235.38 324.49 Q 237.80 324.62 238.58 326.87 A 1.01 1.00 -7.8 0 0 239.47 327.54 L 243.92 327.79 A 0.80 0.80 0.0 0 1 244.66 328.73 L 244.61 329.00 A 0.52 0.51 -82.7 0 0 245.07 329.60 L 246.78 329.76 A 1.01 0.98 69.3 0 1 247.40 330.05 Q 248.59 331.26 250.07 330.61 A 0.98 0.96 40.9 0 1 250.73 330.57 Q 253.75 331.38 258.47 330.67 Q 259.76 330.47 258.81 331.37 Q 258.05 332.09 255.55 331.93 Q 254.90 331.89 255.55 331.89 Q 259.75 331.94 263.94 332.18 Q 264.41 332.21 263.94 332.21 L 243.25 332.21 C 208.32 330.77 173.29 320.90 141.91 301.61 Q 123.44 290.26 114.05 272.67 Q 123.48 277.93 129.83 280.42 C 163.18 293.45 199.82 294.87 235.47 292.41 Q 277.70 289.49 318.42 277.65 C 332.10 273.67 350.34 267.57 360.57 257.27 Z"/>
  <path fill="#c5c9d1" fill-opacity="0.914" d=" M 367.46 270.50 Q 368.38 276.18 366.96 281.75 Q 366.11 282.63 364.82 282.75 A 0.80 0.78 -81.5 0 0 364.15 283.26 Q 363.92 283.85 363.35 283.67 A 0.80 0.80 0.0 0 0 362.37 284.13 L 361.79 285.54 Q 361.76 285.62 361.72 285.69 L 358.31 291.17 A 1.00 0.99 -42.4 0 0 358.26 292.13 L 359.31 294.29 A 1.00 0.99 61.3 0 1 358.94 295.58 L 357.47 296.48 A 1.01 1.00 -50.8 0 1 356.61 296.57 Q 355.92 296.31 355.93 297.09 A 1.02 1.01 75.5 0 1 355.41 297.98 Q 354.43 298.52 353.88 299.41 Q 353.73 299.64 353.74 299.50 L 353.76 299.18 Q 353.79 298.35 353.20 298.92 L 352.00 300.08 A 1.01 1.00 51.7 0 0 351.86 301.35 Q 352.16 301.80 351.77 301.64 A 0.52 0.51 -69.0 0 0 351.08 301.95 Q 350.67 303.19 349.77 304.09 A 1.01 1.00 61.3 0 0 349.50 305.02 L 349.79 306.25 L 348.29 307.39 Q 346.88 306.20 345.25 306.73 Q 344.60 306.94 344.33 307.82 A 0.99 0.98 1.0 0 1 343.63 308.49 Q 342.26 308.85 341.53 310.14 A 0.99 0.97 -80.7 0 1 340.88 310.62 Q 338.96 311.06 337.59 312.53 A 0.98 0.96 70.9 0 0 337.33 313.08 Q 337.15 314.49 335.71 314.10 A 1.02 0.98 35.3 0 0 334.90 314.22 C 333.30 315.26 331.49 315.58 329.88 316.56 Q 327.19 318.19 324.02 318.77 A 1.02 1.00 -85.9 0 0 323.25 319.45 Q 322.99 320.27 322.41 320.79 Q 321.86 321.29 322.60 321.25 L 323.25 321.21 C 298.70 330.80 270.25 334.62 243.25 332.21 L 263.94 332.21 Q 264.41 332.21 263.94 332.18 Q 259.75 331.94 255.55 331.89 Q 254.90 331.89 255.55 331.93 Q 258.05 332.09 258.81 331.37 Q 259.76 330.47 258.47 330.67 Q 253.75 331.38 250.73 330.57 A 0.98 0.96 40.9 0 0 250.07 330.61 Q 248.59 331.26 247.40 330.05 A 1.01 0.98 69.3 0 0 246.78 329.76 L 245.07 329.60 A 0.52 0.51 -82.7 0 1 244.61 329.00 L 244.66 328.73 A 0.80 0.80 0.0 0 0 243.92 327.79 L 239.47 327.54 A 1.01 1.00 -7.8 0 1 238.58 326.87 Q 237.80 324.62 235.38 324.49 A 1.01 1.01 0.0 0 1 234.62 324.07 L 233.82 322.94 A 1.00 1.00 0.0 0 0 232.70 322.56 Q 228.28 323.98 225.80 319.98 A 1.04 1.03 87.5 0 0 225.40 319.61 Q 223.68 318.73 225.14 317.40 A 1.03 1.00 71.6 0 0 225.47 316.72 Q 225.57 314.84 227.13 314.11 Q 228.02 313.69 228.11 313.60 Q 229.84 311.89 232.44 311.61 A 0.96 0.94 -67.9 0 0 232.97 311.38 Q 235.71 309.08 239.15 307.90 A 1.02 1.01 -79.0 0 0 239.59 307.60 Q 242.33 304.38 246.58 305.04 A 1.02 1.00 28.8 0 0 247.39 304.81 Q 250.07 302.48 253.58 303.03 A 1.02 1.01 -65.6 0 0 254.52 302.67 Q 256.50 300.19 259.75 300.26 A 1.02 1.00 -72.0 0 0 260.60 299.82 Q 262.81 296.54 266.85 297.31 A 0.99 0.98 -66.7 0 0 267.84 296.91 L 270.25 293.56 A 0.99 0.97 -79.3 0 1 270.81 293.17 Q 272.23 292.80 273.08 291.65 A 0.99 0.99 0.0 0 1 273.92 291.24 C 274.65 291.27 277.94 291.73 277.64 290.32 A 0.51 0.51 0.0 0 1 278.24 289.71 Q 279.95 290.05 281.62 289.06 A 0.96 0.96 0.0 0 1 282.12 288.92 L 296.23 288.81 A 1.03 0.98 -66.5 0 0 296.94 288.51 Q 299.25 286.13 303.07 285.57 Q 304.46 285.36 305.34 283.77 A 1.08 1.08 0.0 0 1 305.85 283.32 L 310.07 281.64 A 1.05 1.01 6.3 0 0 310.51 281.30 Q 311.37 280.13 312.83 281.07 A 1.01 0.97 51.9 0 0 313.67 281.19 Q 314.57 280.90 314.02 280.58 Q 313.31 280.17 314.06 279.85 Q 314.80 279.54 315.76 279.53 Q 316.43 279.52 316.76 278.96 A 1.01 0.98 14.5 0 1 317.60 278.48 Q 319.73 278.44 321.64 277.73 Q 325.29 276.35 325.38 276.33 Q 333.61 273.96 341.35 270.26 A 0.27 0.26 77.8 0 0 341.50 270.02 L 341.50 269.75 A 0.15 0.08 -6.8 0 1 341.63 269.66 C 346.98 268.73 353.96 263.84 358.26 260.29 Q 359.26 259.48 360.03 259.97 A 0.80 0.80 0.0 0 1 360.36 260.89 Q 359.82 262.58 360.73 264.16 Q 362.50 267.21 364.76 269.27 Q 365.44 269.89 365.19 269.01 Q 365.04 268.50 365.63 268.32 A 0.51 0.51 0.0 0 1 366.29 268.85 Q 366.14 270.57 367.46 270.50 Z"/>
  <path fill="#3a4f78" d=" M 163.50 260.71 Q 184.97 269.82 208.25 271.79 Q 208.57 272.35 209.15 272.49 A 1.02 1.00 0.6 0 1 209.89 273.23 Q 211.21 278.92 210.81 284.75 Q 210.73 285.84 210.97 286.92 A 1.00 1.00 0.0 0 1 210.29 288.10 Q 209.85 288.23 209.50 288.46 Q 187.22 288.59 165.25 284.96 Q 166.07 278.05 165.29 271.11 C 164.91 267.69 163.26 264.87 162.29 261.43 A 0.64 0.64 0.0 0 1 162.90 260.62 Q 163.22 260.61 163.50 260.71 Z"/>
  <path fill="#0c214b" d=" M 237.25 287.21 Q 237.43 286.71 237.85 286.53 A 0.80 0.80 0.0 0 0 238.33 285.69 L 236.50 272.04 Q 265.80 269.56 293.83 260.62 A 1.01 1.00 -14.9 0 1 295.12 261.36 Q 295.45 262.96 296.47 265.00 Q 299.55 271.15 297.65 277.43 A 1.02 1.02 0.0 0 1 296.92 278.12 Q 267.21 285.05 237.25 287.21 Z"/>
  <path fill="#233a63" d=" M 208.25 271.79 Q 222.37 272.65 236.50 272.04 L 238.33 285.69 A 0.80 0.80 0.0 0 1 237.85 286.53 Q 237.43 286.71 237.25 287.21 Q 223.40 288.43 209.50 288.46 Q 209.85 288.23 210.29 288.10 A 1.00 1.00 0.0 0 0 210.97 286.92 Q 210.73 285.84 210.81 284.75 Q 211.21 278.92 209.89 273.23 A 1.02 1.00 0.6 0 0 209.15 272.49 Q 208.57 272.35 208.25 271.79 Z"/>
  <path fill="#c4cbd9" d=" M 366.96 281.75 Q 362.36 296.78 349.79 306.25 L 349.50 305.02 A 1.01 1.00 61.3 0 1 349.77 304.09 Q 350.67 303.19 351.08 301.95 A 0.52 0.51 -69.0 0 1 351.77 301.64 Q 352.16 301.80 351.86 301.35 A 1.01 1.00 51.7 0 1 352.00 300.08 L 353.20 298.92 Q 353.79 298.35 353.76 299.18 L 353.74 299.50 Q 353.73 299.64 353.88 299.41 Q 354.43 298.52 355.41 297.98 A 1.02 1.01 75.5 0 0 355.93 297.09 Q 355.92 296.31 356.61 296.57 A 1.01 1.00 -50.8 0 0 357.47 296.48 L 358.94 295.58 A 1.00 0.99 61.3 0 0 359.31 294.29 L 358.26 292.13 A 1.00 0.99 -42.4 0 1 358.31 291.17 L 361.72 285.69 Q 361.76 285.62 361.79 285.54 L 362.37 284.13 A 0.80 0.80 0.0 0 1 363.35 283.67 Q 363.92 283.85 364.15 283.26 A 0.80 0.78 -81.5 0 1 364.82 282.75 Q 366.11 282.63 366.96 281.75 Z"/>
  <path fill="#c4cbd9" d=" M 348.29 307.39 Q 336.77 316.28 323.25 321.21 L 322.60 321.25 Q 321.86 321.29 322.41 320.79 Q 322.99 320.27 323.25 319.45 A 1.02 1.00 -85.9 0 1 324.02 318.77 Q 327.19 318.19 329.88 316.56 C 331.49 315.58 333.30 315.26 334.90 314.22 A 1.02 0.98 35.3 0 1 335.71 314.10 Q 337.15 314.49 337.33 313.08 A 0.98 0.96 70.9 0 1 337.59 312.53 Q 338.96 311.06 340.88 310.62 A 0.99 0.97 -80.7 0 0 341.53 310.14 Q 342.26 308.85 343.63 308.49 A 0.99 0.98 1.0 0 0 344.33 307.82 Q 344.60 306.94 345.25 306.73 Q 346.88 306.20 348.29 307.39 Z"/>
</svg>